<?xml version="1.0" encoding="UTF-8" standalone="no"?>
<svg
   xmlns:dc="http://purl.org/dc/elements/1.1/"
   xmlns:cc="http://creativecommons.org/ns#"
   xmlns:rdf="http://www.w3.org/1999/02/22-rdf-syntax-ns#"
   xmlns:svg="http://www.w3.org/2000/svg"
   xmlns="http://www.w3.org/2000/svg"
   viewBox="0 0 666.66669 666.66669"
   height="666.66669"
   width="666.66669"
   xml:space="preserve"
   id="svg2"
   version="1.1"><metadata
     id="metadata8"><rdf:RDF><cc:Work
         rdf:about=""><dc:format>image/svg+xml</dc:format><dc:type
           rdf:resource="http://purl.org/dc/dcmitype/StillImage" /></cc:Work></rdf:RDF></metadata><defs
     id="defs6"><clipPath
       id="clipPath20"
       clipPathUnits="userSpaceOnUse"><path
         id="path18"
         d="M 0,500 H 500 V 0 H 0 Z" /></clipPath></defs><g
     transform="matrix(1.3333333,0,0,-1.3333333,0,666.66667)"
     id="g10"><path
       id="path12"
       style="fill:#ffffff;fill-opacity:1;fill-rule:nonzero;stroke:none"
       d="M 0,0 H 500 V 500 H 0 Z" /><g
       id="g14"><g
         clip-path="url(#clipPath20)"
         id="g16"><g
           transform="translate(408.6621,270.8617)"
           id="g22"><path
             id="path24"
             style="fill:#1c1c1a;fill-opacity:1;fill-rule:nonzero;stroke:none"
             d="m 0,0 c -1.328,1.117 -2.619,2.272 -3.875,3.465 -1.45,1.374 -2.589,2.673 -3.417,3.896 -1.046,1.536 -1.928,3.17 -2.647,4.902 -0.488,1.173 -2.353,4.771 -5.595,10.796 -0.25,0.464 -0.551,1.262 -0.903,2.393 -0.002,0.01 -0.004,0.02 -0.005,0.029 -0.008,0.079 0.047,0.148 0.124,0.155 1.063,0.109 2.125,0.218 3.184,0.33 2.154,0.226 4.101,-0.256 5.842,-1.447 0.25,-0.171 0.385,-0.105 0.405,0.198 0.022,0.312 -0.059,0.568 -0.242,0.766 -1.212,1.319 -2.33,2.712 -3.354,4.181 -2.762,3.968 -5.58,7.896 -8.454,11.784 -0.022,0.03 -0.549,0.756 -1.583,2.178 -1.554,2.142 -3.072,3.958 -4.554,5.45 -1.668,1.682 -3.605,3.098 -5.811,4.25 -3.13,1.635 -6.356,2.804 -9.682,3.507 -0.114,0.023 -0.207,0.03 -0.282,0.021 -0.184,-0.025 -0.243,-0.115 -0.176,-0.267 0.035,-0.081 0.11,-0.15 0.225,-0.208 1.533,-0.775 3.133,-1.995 4.798,-3.66 1.952,-1.95 3.481,-3.901 4.59,-5.852 0.728,-1.286 1.1,-1.941 1.113,-1.964 0.414,-0.71 0.804,-1.442 1.169,-2.196 0.072,-0.15 0.036,-0.183 -0.107,-0.097 -1.145,0.668 -2.343,1.087 -3.594,1.256 -0.965,0.132 -1.471,0.201 -1.52,0.208 -0.61,0.097 -1.225,0.164 -1.845,0.201 -0.116,0.007 -0.124,-0.021 -0.025,-0.083 0.565,-0.354 0.955,-0.634 1.173,-0.839 1.503,-1.418 3.008,-2.833 4.513,-4.247 1.034,-0.969 1.892,-2.075 2.574,-3.319 0.833,-1.52 1.581,-3.079 2.245,-4.677 0.205,-0.499 0.558,-0.85 1.058,-1.051 0.414,-0.164 0.401,-0.281 -0.038,-0.351 -2.524,-0.393 -4.891,-1.275 -7.102,-2.646 -0.166,-0.102 -0.155,-0.183 0.031,-0.243 6.291,-2.033 10.938,-5.807 13.939,-11.323 0.056,-0.101 0.035,-0.121 -0.062,-0.059 -0.491,0.314 -1.014,0.562 -1.572,0.742 -2.99,0.967 -6.149,1.277 -9.477,0.93 -0.342,-0.034 -0.353,-0.114 -0.032,-0.239 0.126,-0.049 0.244,-0.115 0.367,-0.17 3.869,-3.562 7.398,-7.338 10.352,-11.526 1.53,-2.145 2.938,-4.365 4.206,-6.658 1.251,-2.304 2.364,-4.674 3.33,-7.102 1.992,-4.842 3.076,-9.972 4.159,-15.248 0.015,-0.069 0.029,-0.139 0.042,-0.208 -0.416,1.023 -0.853,2.037 -1.338,3.029 -1.438,2.945 -3.17,5.748 -5.185,8.326 -2.022,2.57 -4.297,4.946 -6.93,6.896 1.633,-2.835 3.29,-5.542 4.837,-8.298 1.553,-2.748 3.026,-5.515 4.403,-8.329 1.378,-2.815 2.658,-5.676 3.874,-8.59 1.225,-2.913 2.343,-5.884 3.574,-8.915 0.007,0.296 -0.014,0.59 -0.017,0.884 0.143,5.217 -0.178,10.428 -0.772,15.606 -0.317,2.688 -0.69,5.383 -1.264,8.082 -0.584,2.697 -1.368,5.375 -2.408,7.943 -1.026,2.575 -2.257,5.065 -3.678,7.439 -0.86,1.413 -1.796,2.777 -2.787,4.097 1.099,-0.552 2.236,-1.017 3.424,-1.367 C -8.416,2.063 -7.221,1.709 -7.195,1.7 -4.903,0.934 -2.586,0.252 -0.243,-0.347 -0.146,-0.373 -0.062,-0.375 0.01,-0.354 0.216,-0.298 0.213,-0.181 0,0 m -21.658,-50.459 c -0.433,2.695 -1.171,5.239 -1.894,7.729 -0.728,2.498 -1.405,4.94 -1.883,7.61 -0.096,-0.294 -0.179,-0.592 -0.254,-0.891 -0.061,0.476 -0.117,0.953 -0.205,1.425 -0.318,-5.571 -1.847,-10.81 -3.956,-15.803 -2.106,-5.001 -4.743,-9.785 -7.379,-14.63 -2.639,-4.856 -5.233,-9.847 -7.08,-15.188 -1.835,-5.306 -2.915,-11.066 -2.114,-16.616 0.557,5.552 2.244,10.738 4.459,15.695 2.212,4.962 4.906,9.723 7.546,14.581 2.643,4.868 5.186,9.902 6.923,15.288 0.716,2.214 1.276,4.508 1.631,6.826 0.29,-2.237 0.711,-4.407 1.045,-6.525 0.404,-2.496 0.607,-4.959 0.606,-7.502 0.015,-2.54 -0.214,-5.098 -0.494,-7.796 1.537,2.242 2.503,4.858 3.002,7.56 0.502,2.699 0.49,5.537 0.047,8.237 m -20.839,1.042 c 1.81,4.332 2.87,9.086 3.178,14.265 0.044,0.739 0.102,1.448 0.176,2.126 0.08,0.703 0.146,1.408 0.202,2.116 0.086,1.082 0.186,2.14 0.301,3.174 0.359,3.206 0.499,6.424 0.42,9.655 -0.002,0.027 -0.014,0.167 -0.038,0.419 -0.037,0.375 0.086,0.522 0.367,0.441 0.099,-0.029 0.181,-0.114 0.219,-0.229 0.664,-2.014 1.693,-5.508 3.088,-10.48 0.631,-2.25 0.901,-4.324 0.812,-6.223 -0.005,-0.12 0.036,-0.141 0.121,-0.063 0.427,0.384 0.719,0.867 0.875,1.45 0.167,0.628 0.32,1.258 0.463,1.891 1.514,4.054 2.642,8.281 3.029,12.702 0.201,2.611 0.17,5.294 -0.318,7.923 -0.419,2.646 -1.273,5.163 -2.229,7.591 -1.942,4.864 -4.56,9.256 -6.822,13.725 -1.119,2.239 -2.236,4.48 -3.067,6.828 -0.853,2.342 -1.48,4.768 -1.853,7.314 -0.328,-2.547 -0.152,-5.176 0.338,-7.736 0.482,-2.571 1.347,-5.035 2.285,-7.441 1.897,-4.811 4.321,-9.289 6.149,-13.882 1.268,-3.055 2.171,-6.162 2.64,-9.361 -0.956,3.622 -2.572,7.066 -4.861,10.332 -1.079,1.536 -1.95,2.545 -2.613,3.028 -2.766,2.008 -5.586,4.034 -8.458,6.078 -0.52,0.37 -0.661,0.259 -0.423,-0.333 1.159,-2.879 2.005,-5.839 2.539,-8.881 0.394,-2.252 0.507,-4.552 0.34,-6.9 -0.169,-2.335 -0.503,-4.938 -1.002,-7.808 -0.877,-5.031 -1.6,-10.033 -2.172,-15.007 -0.042,-0.352 -0.148,-0.374 -0.319,-0.066 l -4.69,8.423 c -0.081,0.148 -0.142,0.139 -0.184,-0.025 -0.194,-0.754 -0.35,-1.524 -0.468,-2.31 -0.153,-1.02 -0.324,-1.778 -0.513,-2.276 -0.629,-1.644 -1.593,-3.158 -2.89,-4.541 -0.101,-0.106 -0.253,-0.149 -0.396,-0.111 -0.83,0.217 -1.544,0.617 -2.144,1.197 -0.022,0.021 -0.047,0.037 -0.075,0.047 -0.013,0.005 -0.025,-0.004 -0.038,-0.002 -0.028,0.004 -0.049,0.002 -0.076,-0.005 -0.028,-0.006 -0.048,-0.014 -0.072,-0.031 -0.011,-0.008 -0.025,-0.005 -0.034,-0.015 -0.021,-0.022 -0.038,-0.048 -0.048,-0.077 -1.23,-3.532 -2.511,-6.91 -3.841,-10.137 -2.248,-5.451 -4.974,-10.647 -8.179,-15.59 -0.13,-0.196 -0.081,-0.194 0.145,0.008 7.204,6.396 14.56,12.703 22.067,18.92 0.292,0.24 0.446,0.172 0.464,-0.205 0.23,-4.876 -0.075,-9.747 -0.912,-14.615 -0.005,-0.019 -0.114,-0.839 -0.329,-2.46 -0.162,-1.214 -0.489,-2.426 -0.982,-3.635 -0.083,-0.208 -0.015,-0.291 0.205,-0.247 0.345,0.07 0.643,0.21 0.898,0.42 0.245,0.202 0.372,0.307 0.382,0.316 3.858,2.796 6.639,6.23 8.343,10.303 M -54.58,-75.926 c -0.191,1.61 -0.61,3.299 -1.256,5.068 -0.721,1.989 -1.605,3.903 -2.653,5.741 -0.132,0.229 -0.237,0.316 -0.313,0.261 -0.169,-0.12 -0.24,-0.335 -0.177,-0.531 0.754,-2.362 0.928,-4.568 0.521,-6.619 -0.613,-3.097 -2.018,-6.279 -4.215,-9.547 -0.064,-0.097 -0.117,-0.09 -0.156,0.021 -1.075,3.136 -3.231,5.405 -6.466,6.806 -0.015,0.006 -0.03,0.01 -0.045,0.01 -0.067,0.002 -0.123,-0.051 -0.126,-0.117 -0.078,-3.188 -0.296,-6.273 -0.651,-9.259 -0.003,-0.021 -0.017,-0.291 -0.042,-0.808 -0.024,-0.449 -0.144,-0.89 -0.361,-1.322 -0.204,-0.407 -0.489,-0.476 -0.857,-0.205 -1.55,1.135 -2.815,2.567 -3.799,4.295 -0.453,0.798 -0.984,1.441 -1.595,1.928 -0.092,0.077 -0.127,0.056 -0.104,-0.062 0.018,-0.089 0.028,-0.178 0.044,-0.268 -1.321,-8.554 -5.699,-15.66 -9.561,-23.303 -1.94,-3.839 -3.714,-7.868 -4.751,-12.163 -1.029,-4.259 -1.277,-8.891 0.122,-13.022 -0.058,4.331 0.873,8.402 2.292,12.303 1.418,3.905 3.283,7.655 5.193,11.438 1.916,3.796 3.848,7.689 5.221,11.851 0.775,2.357 1.359,4.83 1.602,7.317 -0.039,-0.88 -0.055,-1.528 -0.044,-1.937 0.159,-6.969 0.152,-13.936 -0.024,-20.901 -0.017,-0.646 0.078,-0.81 0.284,-0.493 0.056,0.083 0.094,0.189 0.114,0.316 0.837,4.733 2.723,9.003 5.654,12.807 1.241,1.608 2.844,2.312 4.812,2.113 3.928,-0.396 5.557,-2.563 4.889,-6.501 -0.024,-0.132 -0.034,-0.249 -0.029,-0.351 0.026,-0.672 0.189,-0.682 0.49,-0.027 0.978,2.13 1.891,4.285 2.74,6.466 1.217,3.124 1.997,5.302 2.342,6.533 0.635,2.28 0.987,4.609 1.054,6.989 0.061,2.112 0.011,3.836 -0.149,5.173 m -40.441,9.969 c 2.615,4.801 4.382,10.096 5.175,15.542 0.794,5.447 0.608,11.026 -0.531,16.373 -1.144,5.34 -3.206,10.483 -6.252,14.92 1.844,-5.044 3.15,-10.156 3.767,-15.336 0.622,-5.172 0.591,-10.386 -0.15,-15.497 -0.122,-0.837 -0.269,-1.671 -0.428,-2.504 -0.031,0.973 -0.091,1.948 -0.201,2.927 -0.564,5.031 -2.523,9.463 -5.877,13.297 -0.802,0.916 -1.709,1.864 -2.719,2.845 -1.15,1.112 -2.181,1.928 -3.095,2.446 -1.772,1.006 -3.549,2.004 -5.332,2.993 -1.385,0.768 -2.362,1.857 -2.931,3.268 -0.469,1.163 -0.626,2.548 -0.468,4.153 0.27,2.763 1.381,5.213 3.334,7.347 1.014,1.11 2.084,2.02 3.2,2.771 -0.114,-0.141 -0.233,-0.277 -0.342,-0.421 0.743,0.552 1.509,1.045 2.283,1.513 0.259,0.12 0.513,0.259 0.776,0.362 3.018,1.178 5.619,2.329 7.816,3.453 1.765,0.599 3.555,1.151 5.354,1.713 2.861,0.889 5.765,1.817 8.622,3.06 2.85,1.239 5.586,2.766 8.149,4.564 5.104,3.596 9.51,8.41 12.198,14.118 1.639,3.452 2.664,7.231 2.885,11 0.136,-1.802 0.262,-3.593 0.35,-5.38 0.21,-3.954 0.302,-7.882 0.242,-11.811 -0.059,-3.928 -0.268,-7.852 -0.595,-11.798 -0.314,-3.95 -0.797,-7.902 -1.205,-11.988 2.004,3.591 3.363,7.496 4.315,11.493 0.941,4.002 1.425,8.116 1.485,12.234 0.057,4.118 -0.306,8.245 -1.129,12.273 -0.835,4.022 -2.078,7.964 -3.971,11.615 0,-0.002 10e-4,-0.004 10e-4,-0.006 -0.035,0.154 -0.063,0.31 -0.101,0.463 -0.244,-6.052 -2.097,-11.703 -5.055,-16.613 -2.951,-4.911 -7.046,-9.023 -11.727,-12.333 -2.348,-1.648 -4.837,-3.115 -7.434,-4.39 -1.228,-0.605 -2.492,-1.169 -3.776,-1.722 1.129,1.294 2.137,2.709 3.021,4.25 1.846,3.222 3.067,6.645 3.667,10.269 0.259,1.556 0.43,3.014 0.516,4.371 0.085,1.309 0.095,2.776 0.028,4.402 -0.102,2.491 -0.285,5.077 -0.552,7.76 -0.053,0.546 -0.276,0.629 -0.669,0.25 -0.558,-0.537 -1.013,-1.073 -1.367,-1.61 -2.526,-3.813 -5.023,-7.645 -7.493,-11.496 -0.462,-0.72 -0.955,-1.411 -1.467,-2.084 -3.005,-2.505 -6.275,-4.476 -9.739,-5.971 -4.27,-1.842 -8.765,-3.009 -13.376,-3.605 -4.634,-0.619 -9.51,-0.805 -14.41,-1.785 -2.443,-0.49 -4.874,-1.197 -7.167,-2.232 -2.282,-1.038 -4.441,-2.413 -6.129,-4.211 4.405,2.193 9.042,2.962 13.732,3.325 4.695,0.355 9.533,0.282 14.5,0.938 0.74,0.096 1.479,0.219 2.215,0.356 -2.894,-1.082 -5.401,-2.222 -7.518,-3.418 -1.799,-1.018 -3.193,-2.43 -4.183,-4.236 -0.708,-1.296 -1.167,-2.518 -1.377,-3.667 -0.24,-1.321 -0.145,-2.66 0.288,-4.017 0.64,-2.01 1.508,-3.917 2.601,-5.721 0.25,-0.409 0.938,-1.626 2.065,-3.652 0.483,-0.866 0.729,-1.724 0.738,-2.578 0.012,-1.084 0.019,-1.636 0.022,-1.655 0.501,-4.586 1.433,-8.899 2.796,-12.939 1.024,-3.03 1.781,-5.931 2.271,-8.704 0.121,-0.678 0.225,-1.6 0.312,-2.768 0.093,-1.235 0.208,-2.16 0.344,-2.772 0.134,-0.601 0.038,-0.752 -0.288,-0.451 -0.076,0.072 -0.142,0.166 -0.198,0.284 -2.363,4.952 -5.906,8.655 -10.629,11.111 -1.85,0.963 -3.535,1.632 -5.054,2.009 -1.786,0.444 -3.622,0.569 -5.508,0.375 -1.853,-0.19 -3.705,-0.383 -5.555,-0.579 -0.354,-0.037 -0.354,-0.095 0,-0.174 2.752,-0.606 5.116,-1.88 7.091,-3.823 0.03,-0.028 0.392,-0.368 1.086,-1.019 0.474,-0.447 0.89,-0.944 1.249,-1.492 0.062,-0.097 0.036,-0.143 -0.08,-0.136 -1.157,0.077 -2.311,0.063 -3.462,-0.041 -1.823,-0.164 -2.743,-0.247 -2.758,-0.247 -3.604,-0.245 -7.166,-0.746 -10.689,-1.501 -3.725,-0.803 -5.867,-1.231 -6.424,-1.284 -2.449,-0.238 -4.747,-0.086 -6.893,0.458 -3.504,0.89 -6.61,1.512 -9.321,1.866 -2.711,0.354 -6.135,0.642 -10.272,0.864 -0.014,0 -0.32,0.028 -0.92,0.083 -0.587,0.056 -1.202,0.028 -1.845,-0.083 -0.278,-0.047 -0.349,0.054 -0.215,0.302 0.194,0.36 0.408,0.698 0.641,1.012 0.22,0.294 0.508,0.568 0.865,0.823 1.82,1.309 3.799,2.314 5.938,3.018 1.051,0.344 2.097,0.485 3.14,0.423 0.518,-0.03 0.556,0.09 0.115,0.361 -0.799,0.488 -1.653,0.785 -2.565,0.891 -0.977,0.116 -1.483,0.176 -1.515,0.181 -4.938,0.795 -9.361,-0.124 -13.273,-2.758 -3.142,-2.121 -5.758,-5.085 -7.846,-8.891 -0.208,-0.377 -0.472,-1.024 -0.791,-1.939 -0.043,-0.121 -0.114,-0.215 -0.199,-0.264 -0.179,-0.106 -0.37,-0.125 -0.568,-0.056 -0.091,0.029 -0.141,0.134 -0.115,0.24 0.143,0.573 0.244,1.152 0.302,1.738 0.506,4.995 1.441,9.907 2.803,14.736 1.251,4.434 2.011,8.948 2.28,13.543 0.032,0.541 0.097,0.995 0.197,1.36 0.132,0.493 0.288,0.926 0.469,1.301 0.71,1.466 1.678,3.302 2.906,5.505 0.826,1.485 1.303,3.121 1.43,4.909 0.125,1.771 -0.093,3.419 -0.653,4.944 -0.749,2.037 -2.035,3.638 -3.857,4.804 -2.33,1.493 -4.744,2.597 -7.234,3.345 4.899,-0.628 9.672,-0.565 14.306,-0.915 4.691,-0.363 9.327,-1.132 13.732,-3.325 -1.688,1.798 -3.847,3.173 -6.129,4.211 -2.293,1.035 -4.724,1.742 -7.167,2.232 -4.9,0.98 -9.775,1.166 -14.41,1.785 -4.611,0.596 -9.106,1.763 -13.375,3.605 -4.052,1.748 -7.838,4.143 -11.243,7.291 -0.015,0.024 -0.032,0.046 -0.049,0.07 -1.933,2.854 -4.358,6.94 -7.274,12.257 -0.37,0.672 -0.809,1.301 -1.314,1.887 -0.112,0.124 -0.176,0.104 -0.195,-0.063 -0.222,-1.859 -0.453,-3.724 -0.694,-5.595 -0.238,-1.846 -0.395,-3.593 -0.468,-5.242 -0.125,-2.847 -0.17,-4.6 -0.136,-5.259 0.135,-2.539 0.28,-4.187 0.434,-4.944 0.201,-0.976 0.623,-2.386 1.267,-4.232 0.589,-1.693 1.155,-3.05 1.696,-4.072 0.74,-1.397 1.599,-2.681 2.565,-3.859 -0.103,0.048 -0.212,0.092 -0.315,0.141 -2.655,1.265 -5.219,2.705 -7.619,4.366 -4.806,3.299 -9.032,7.432 -12.067,12.404 -3.044,4.969 -4.953,10.713 -5.189,16.866 -0.038,-0.157 -0.068,-0.316 -0.102,-0.473 0,0.005 0,0.01 0.001,0.016 -1.892,-3.651 -3.134,-7.594 -3.969,-11.616 -0.824,-4.028 -1.188,-8.154 -1.129,-12.272 0.058,-4.118 0.543,-8.233 1.483,-12.235 0.952,-3.996 2.312,-7.901 4.316,-11.492 -0.409,4.086 -0.891,8.037 -1.206,11.988 -0.327,3.945 -0.535,7.869 -0.594,11.798 -0.061,3.928 0.032,7.857 0.241,11.81 0.091,1.811 0.219,3.624 0.356,5.449 0.222,-3.892 1.301,-7.795 3.027,-11.346 2.785,-5.782 7.331,-10.612 12.567,-14.194 2.618,-1.808 5.431,-3.306 8.34,-4.532 2.942,-1.233 5.935,-2.08 8.871,-2.894 1.881,-0.523 3.75,-1.025 5.593,-1.576 0.933,-0.311 1.871,-0.611 2.811,-0.902 0.088,-0.03 0.177,-0.057 0.265,-0.088 2.816,-0.97 5.511,-2.233 7.997,-4.032 0.531,-0.486 0.999,-1.012 1.388,-1.592 1.008,-1.505 1.727,-3.137 2.157,-4.895 0.41,-1.679 0.448,-3.141 0.115,-4.385 -0.398,-1.477 -1.242,-2.761 -2.533,-3.85 -1.584,-1.335 -3.044,-2.52 -4.381,-3.556 -2.322,-1.799 -3.775,-2.987 -4.36,-3.563 -2.285,-2.248 -4.026,-4.76 -5.222,-7.538 -1.596,-3.705 -2.29,-7.683 -2.084,-11.933 0.034,-0.724 0.086,-1.463 0.152,-2.215 -0.639,2.31 -1.141,4.653 -1.485,7.019 -0.741,5.111 -0.771,10.325 -0.149,15.497 0.617,5.18 1.923,10.292 3.766,15.336 -3.046,-4.437 -5.107,-9.58 -6.252,-14.92 -1.138,-5.347 -1.325,-10.926 -0.531,-16.373 0.793,-5.446 2.561,-10.741 5.175,-15.542 2.202,-4.033 4.993,-7.739 8.311,-10.835 0.073,-1.121 0.135,-2.241 0.181,-3.361 0.072,-1.725 0.191,-3.025 0.358,-3.899 0.539,-2.87 1.599,-5.721 3.181,-8.555 1.537,-2.752 3.475,-5.296 5.811,-7.631 2.84,-2.838 5.931,-5.26 9.276,-7.265 1.746,-1.047 3.474,-1.887 5.183,-2.518 1.746,-0.648 3.596,-1.181 5.553,-1.6 2.553,-0.546 4.694,-0.942 6.421,-1.19 0.015,-0.002 0.029,-10e-4 0.042,0.001 0.011,0.002 0.016,0.012 0.026,0.016 0.015,0.006 0.027,0.013 0.039,0.024 0.012,0.013 0.018,0.024 0.024,0.04 0.004,0.009 0.014,0.014 0.016,0.024 0.002,0.014 0.002,0.028 -10e-4,0.041 -0.063,0.308 -0.235,0.533 -0.517,0.677 -2.358,1.193 -4.26,2.821 -5.703,4.884 -3.774,5.405 -6.089,11.377 -6.945,17.918 -0.053,0.402 -0.127,0.821 -0.222,1.256 -0.115,0.543 -0.186,0.965 -0.212,1.266 -0.055,0.654 0.137,0.738 0.576,0.249 3.19,-3.531 6.876,-5.487 11.06,-5.869 0.955,-0.086 1.947,-0.206 2.976,-0.361 0.442,-0.067 0.494,0.045 0.157,0.336 -0.97,0.843 -1.83,1.821 -2.581,2.935 -1.467,2.174 -2.838,4.405 -4.115,6.692 -0.571,1.022 -1.128,2.441 -1.669,4.257 -0.328,1.101 -0.505,2.151 -0.531,3.15 -0.013,0.578 0.074,1.628 0.264,3.15 0.22,1.778 0.549,3.537 0.985,5.276 0.479,1.908 0.853,3.154 1.121,3.74 0.599,1.299 1.503,2.294 2.713,2.983 1.288,0.733 2.64,1.318 4.055,1.755 3.377,1.046 6.826,1.661 10.349,1.846 0.336,0.018 0.995,-0.008 1.973,-0.08 0.661,-0.049 1.323,-0.03 1.985,0.056 0.078,0.009 0.157,0.007 0.235,-0.004 1.48,-0.218 2.71,-0.279 3.687,-0.184 0.896,0.088 1.349,0.133 1.361,0.135 3.97,0.164 7.903,-0.148 11.798,-0.936 2.886,-0.585 5.281,-1.419 7.184,-2.502 1.408,-0.802 2.392,-1.669 2.949,-2.601 1.353,-2.267 2.297,-4.901 2.834,-7.902 0.303,-1.705 0.477,-3.031 0.521,-3.979 0.062,-1.37 -0.082,-2.71 -0.434,-4.021 -0.358,-1.344 -1.111,-3.158 -2.258,-5.443 -1.622,-3.222 -3.758,-6.092 -6.412,-8.61 -0.085,-0.079 -0.072,-0.101 0.039,-0.066 2.2,0.691 3.965,1.021 5.297,0.989 1.305,-0.031 2.496,0.308 3.576,1.016 2.492,1.635 4.865,3.457 7.12,5.467 0.235,0.211 0.315,0.163 0.239,-0.142 -1.011,-4.082 -2.187,-8.128 -3.528,-12.138 -0.724,-2.163 -1.431,-3.912 -2.12,-5.249 -0.87,-1.688 -1.874,-3.297 -3.011,-4.825 -0.942,-1.268 -1.616,-2.112 -2.023,-2.533 -0.759,-0.786 -1.64,-1.432 -2.646,-1.939 -0.237,-0.12 -0.314,-0.234 -0.233,-0.343 0.052,-0.071 0.168,-0.104 0.302,-0.087 4.574,0.58 8.97,2.15 13.186,4.707 5.314,3.224 9.841,7.024 13.581,11.4 4.183,4.898 6.299,10.596 6.344,17.095 0,0.021 -0.008,0.175 -0.027,0.461 -0.032,0.534 0.144,1.073 0.527,1.614 0.001,10e-4 0.001,10e-4 0.002,0.002 3.495,3.168 6.414,7.017 8.703,11.21 m -8.165,-51.498 c -0.748,-3.607 -1.33,-7.169 -1.973,-10.711 -0.633,-3.541 -1.281,-7.061 -1.982,-10.571 -0.699,-3.511 -1.447,-7.011 -2.218,-10.525 -0.761,-3.518 -1.585,-7.031 -2.27,-10.652 1.932,3.142 3.43,6.504 4.69,9.95 1.25,3.451 2.221,7.002 2.937,10.603 0.714,3.601 1.173,7.254 1.338,10.92 0.154,3.665 0.058,7.345 -0.522,10.986 m -13.711,3.396 c -0.014,0.189 -0.078,0.208 -0.191,0.055 -0.449,-0.608 -0.938,-1.112 -1.468,-1.512 -1.602,-1.205 -2.903,-2.678 -3.902,-4.42 -1.573,-2.738 -3.032,-5.535 -4.378,-8.391 -1.693,-3.592 -2.542,-5.394 -2.547,-5.405 -1.516,-3.083 -3.084,-6.143 -4.7,-9.179 -0.201,-0.38 -0.116,-0.462 0.257,-0.247 1.766,1.018 3.438,2.207 5.015,3.567 1.557,1.343 3.002,2.788 4.337,4.333 3.54,4.098 5.916,8.857 7.125,14.278 0.477,2.135 0.627,4.441 0.452,6.921 m -26.094,-14.04 c -0.054,-0.883 -0.386,-2.065 -0.996,-3.545 -0.044,-0.108 -0.137,-0.18 -0.236,-0.184 -0.305,-0.018 -0.508,0.12 -0.611,0.413 -0.441,1.258 -1.128,2.379 -2.061,3.362 -0.284,0.298 -0.428,0.24 -0.433,-0.174 -0.016,-1.565 -0.472,-3.027 -1.366,-4.385 -0.026,-0.038 -0.059,-0.067 -0.093,-0.095 -0.023,-0.019 -0.047,-0.034 -0.071,-0.047 -0.024,-0.013 -0.046,-0.025 -0.072,-0.033 -0.025,-0.008 -0.05,-0.013 -0.077,-0.016 -0.025,-0.003 -0.051,-0.006 -0.077,-0.004 -0.025,0.002 -0.05,0.007 -0.074,0.014 -0.026,0.007 -0.052,0.016 -0.076,0.028 -0.037,0.019 -0.073,0.039 -0.103,0.07 l -1.873,1.974 c -0.03,0.031 -0.067,0.055 -0.108,0.07 -0.013,0.005 -0.025,-0.003 -0.038,0 -0.034,0.007 -0.061,0.004 -0.094,-0.002 -0.033,-0.006 -0.06,-0.011 -0.087,-0.028 -0.011,-0.006 -0.025,-0.003 -0.035,-0.011 -0.031,-0.026 -0.052,-0.06 -0.065,-0.099 -0.152,-0.462 -0.341,-0.905 -0.565,-1.328 -0.264,-0.502 -0.542,-0.836 -0.836,-1.003 -0.319,-0.18 -0.66,-0.213 -1.024,-0.1 -0.258,0.078 -0.508,0.274 -0.749,0.586 -0.723,0.946 -1.338,1.98 -1.845,3.101 -0.134,0.299 -0.248,0.291 -0.344,-0.024 -0.164,-0.539 -0.323,-1.156 -0.479,-1.852 -0.168,-0.763 -0.57,-1.302 -1.203,-1.617 -0.28,-0.138 -0.608,-0.139 -0.888,-0.003 -1.407,0.679 -2.298,1.718 -2.675,3.115 -0.222,0.814 -0.389,0.804 -0.499,-0.031 -0.135,-0.997 -0.541,-1.861 -1.222,-2.592 -0.509,-0.548 -0.993,-0.532 -1.453,0.049 -1.018,1.283 -1.905,2.658 -2.664,4.124 -0.134,0.257 -0.274,0.261 -0.42,0.011 -0.335,-0.571 -0.561,-1.208 -0.68,-1.912 -0.145,-0.858 -0.409,-1.674 -0.791,-2.449 -0.01,-0.021 -0.031,-0.032 -0.05,-0.043 -0.013,-0.008 -0.027,-0.012 -0.041,-0.014 -0.015,-0.001 -0.029,0 -0.043,0.003 -0.022,0.006 -0.044,0.012 -0.06,0.03 -0.948,1.071 -1.567,2.278 -1.856,3.622 -0.33,1.549 -0.648,3.451 -0.951,5.706 -0.017,0.128 -0.072,0.232 -0.149,0.285 -0.185,0.131 -0.339,0.058 -0.461,-0.222 -0.808,-1.848 -1.624,-3.692 -2.449,-5.53 -1.078,-2.401 -1.536,-5.067 -1.374,-7.999 0.065,-1.173 0.332,-2.277 0.802,-3.313 0.918,-2.026 2.168,-3.845 3.75,-5.457 0.566,-0.579 1.248,-0.944 2.043,-1.097 0.287,-0.055 0.381,-0.004 0.284,0.153 -0.03,0.047 -0.083,0.092 -0.159,0.139 -0.364,0.213 -0.649,0.571 -0.857,1.075 -0.483,1.161 -0.676,2.257 -0.576,3.289 0.174,1.818 0.821,3.519 1.942,5.103 0.03,0.042 0.068,0.072 0.107,0.1 0.025,0.019 0.053,0.033 0.081,0.046 0.026,0.012 0.052,0.023 0.079,0.03 0.028,0.007 0.058,0.009 0.086,0.01 0.029,0.002 0.058,0.003 0.087,-0.002 0.028,-0.004 0.054,-0.013 0.081,-0.022 0.029,-0.01 0.058,-0.021 0.086,-0.038 0.041,-0.024 0.082,-0.051 0.115,-0.089 0.449,-0.526 0.823,-1.027 1.124,-1.506 0.599,-0.96 1.562,-1.65 2.89,-2.071 0.006,-0.002 0.013,-0.004 0.02,-0.006 0.024,-0.006 0.046,-0.002 0.069,-0.003 0.028,-0.002 0.054,-0.008 0.081,-0.005 0.025,0.004 0.048,0.015 0.074,0.023 0.024,0.008 0.049,0.013 0.071,0.025 0.023,0.013 0.04,0.032 0.06,0.048 0.019,0.017 0.041,0.031 0.057,0.051 0.017,0.021 0.026,0.046 0.038,0.07 0.011,0.021 0.027,0.038 0.034,0.061 0.002,0.007 0.004,0.014 0.005,0.02 0.336,1.363 0.908,2.614 1.714,3.754 0.451,0.638 0.979,0.747 1.582,0.326 0.394,-0.275 0.861,-0.82 1.402,-1.634 0.537,-0.811 1.181,-1.417 1.935,-1.818 0.382,-0.203 0.678,-0.116 0.889,0.261 0.446,0.793 0.91,1.572 1.391,2.338 0.62,0.985 1.319,1.282 2.098,0.892 0.368,-0.188 0.799,-0.646 1.294,-1.375 0.766,-1.13 1.268,-1.806 1.506,-2.025 0.576,-0.53 1.125,-0.657 1.647,-0.382 0.292,0.153 0.593,0.529 0.903,1.127 0.351,0.676 0.716,1.345 1.093,2.009 0.053,0.094 0.156,0.145 0.256,0.128 0.971,-0.15 1.71,-0.633 2.217,-1.45 0.606,-0.98 0.975,-2.047 1.107,-3.198 0.133,-1.203 0.193,-2.12 0.176,-2.751 -0.025,-0.979 -0.326,-1.89 -0.902,-2.734 -0.064,-0.095 -0.046,-0.117 0.056,-0.066 1.225,0.611 2.387,1.655 3.486,3.133 3.027,4.077 3.847,8.346 2.456,12.808 -0.328,1.049 -0.871,2.406 -1.63,4.069 -0.603,1.325 -1.298,2.612 -2.082,3.861 -0.397,0.634 -0.588,0.577 -0.572,-0.17 0.04,-1.746 0.013,-3.399 -0.079,-4.958 m 7.849,-28.945 c -0.247,1.355 -0.402,2.277 -0.464,2.765 -0.118,0.925 -0.256,1.848 -0.416,2.768 -0.002,0.011 -0.005,0.021 -0.009,0.031 -0.006,0.012 -0.019,0.016 -0.028,0.026 -0.011,0.015 -0.02,0.028 -0.036,0.037 -0.016,0.008 -0.032,0.009 -0.051,0.011 -0.012,0.001 -0.023,0.01 -0.037,0.008 -0.01,-0.002 -0.02,-0.005 -0.03,-0.009 -5.023,-2.065 -8.323,-3.344 -9.9,-3.837 -3.935,-1.225 -7.957,-1.885 -12.07,-1.981 -0.568,-0.013 -1.249,0.032 -2.04,0.136 -0.679,0.09 -1.362,0.159 -2.047,0.208 -1.292,0.092 -2.307,0.215 -3.044,0.368 -5.352,1.103 -10.475,2.911 -15.369,5.425 -0.036,0.018 -0.074,0.029 -0.114,0.033 -0.022,0.001 -0.038,-0.016 -0.059,-0.019 -0.041,-0.005 -0.073,-0.015 -0.108,-0.035 -0.036,-0.02 -0.061,-0.041 -0.087,-0.074 -0.013,-0.017 -0.037,-0.02 -0.047,-0.04 -0.018,-0.036 -0.029,-0.074 -0.032,-0.114 -0.181,-2.331 -0.465,-4.575 -0.853,-6.73 -0.083,-0.452 -0.131,-0.885 -0.143,-1.301 -0.014,-0.437 -0.026,-0.876 -0.038,-1.315 v -0.001 c -0.001,-0.028 0.017,-0.05 0.026,-0.075 0.009,-0.018 0.008,-0.041 0.021,-0.056 0.014,-0.017 0.04,-0.018 0.059,-0.029 0.022,-0.01 0.038,-0.029 0.064,-0.03 0.412,-0.021 0.744,0.071 0.996,0.274 1.274,1.032 2.661,1.336 4.162,0.913 2.015,-0.569 3.92,-1.786 5.718,-3.65 1.545,-1.605 3.237,-3.034 5.078,-4.288 0.652,-0.444 1.317,-0.704 1.995,-0.78 0.77,-0.088 1.404,0.192 1.904,0.84 1.087,1.401 1.873,2.974 2.359,4.717 0.158,0.569 0.338,0.576 0.542,0.021 0.261,-0.708 0.586,-1.471 0.974,-2.29 0.435,-0.918 0.889,-1.606 1.364,-2.064 1.168,-1.131 2.519,-1.51 4.055,-1.137 0.905,0.217 2.018,0.873 3.34,1.966 1.631,1.344 3.197,2.761 4.701,4.25 1.929,1.913 4.153,2.782 6.671,2.609 1.015,-0.069 1.785,-0.592 2.311,-1.568 0.09,-0.167 0.17,-0.282 0.239,-0.347 0.233,-0.217 0.396,-0.129 0.485,0.267 0.262,1.145 0.247,2.511 -0.042,4.097 m -46.088,13.109 c 0.096,-0.066 0.117,-0.05 0.062,0.049 -3.13,5.636 -6.773,12.626 -10.932,20.97 -0.869,1.742 -2.075,3.391 -3.618,4.947 -1.031,1.041 -1.557,1.572 -1.578,1.593 -0.796,0.841 -1.595,1.683 -2.397,2.525 -0.342,0.361 -0.429,0.308 -0.26,-0.16 0.13,-0.358 0.206,-0.745 0.228,-1.162 0.142,-2.657 0.555,-5.261 1.24,-7.812 0.438,-1.635 1.108,-3.297 2.007,-4.985 0.847,-1.589 1.76,-3.139 2.742,-4.652 1.188,-1.829 2.659,-3.508 4.412,-5.037 2.689,-2.35 5.387,-4.442 8.094,-6.276 m -24.116,-15.979 c -0.684,3.621 -1.508,7.134 -2.269,10.652 -0.772,3.514 -1.52,7.014 -2.219,10.525 -0.7,3.51 -1.349,7.03 -1.981,10.571 -0.644,3.542 -1.226,7.104 -1.974,10.711 -0.579,-3.641 -0.676,-7.321 -0.522,-10.986 0.165,-3.666 0.624,-7.319 1.339,-10.92 0.715,-3.601 1.687,-7.152 2.937,-10.603 1.26,-3.446 2.758,-6.808 4.689,-9.95 m -19.91,43.914 c -1.036,4.295 -2.811,8.324 -4.751,12.163 -3.572,7.07 -7.581,13.683 -9.209,21.404 -0.052,0.447 -0.089,0.895 -0.145,1.341 -0.025,0.2 -0.087,0.326 -0.178,0.395 -0.011,0.064 -0.024,0.126 -0.034,0.191 -0.008,-0.051 -0.01,-0.102 -0.018,-0.153 -0.04,0.017 -0.085,0.025 -0.135,0.022 -0.095,-0.007 -0.18,-0.091 -0.211,-0.208 -0.148,-0.539 -0.417,-1.127 -0.805,-1.762 -1.001,-1.638 -2.011,-3.034 -3.029,-4.188 -0.007,-0.008 -0.016,-0.016 -0.025,-0.021 -0.061,-0.04 -0.142,-0.022 -0.183,0.039 -0.875,1.364 -1.423,2.761 -1.64,4.19 -0.387,2.535 -0.701,5.046 -0.943,7.535 -0.004,0.033 -0.015,0.065 -0.033,0.093 -0.063,0.103 -0.198,0.134 -0.301,0.07 -2.463,-1.522 -4.351,-3.59 -5.665,-6.206 -0.123,-0.245 -0.249,-0.246 -0.377,-0.004 -0.737,1.383 -1.43,2.728 -2.083,4.035 -1.142,2.287 -1.697,4.69 -1.665,7.209 0.002,0.335 0.076,1.095 0.219,2.279 0.093,0.761 0.145,1.526 0.156,2.296 0.002,0.08 -0.024,0.148 -0.069,0.18 -0.04,0.031 -0.079,0.037 -0.118,0.021 -0.039,-0.018 -0.073,-0.064 -0.101,-0.138 -0.731,-2.056 -1.356,-3.705 -1.877,-4.947 -1.528,-3.649 -2.196,-7.402 -2.002,-11.257 0,-0.014 -10e-4,-0.329 -0.002,-0.947 -0.005,-0.445 0.056,-0.986 0.183,-1.627 0.232,-1.187 0.449,-2.374 0.652,-3.563 0.456,-2.646 1.207,-5.202 2.251,-7.67 0.369,-0.867 1.432,-2.934 3.192,-6.199 0.056,-0.102 0.091,-0.096 0.104,0.017 0.127,1.015 0.272,2.027 0.434,3.035 0.257,1.578 0.947,2.767 2.071,3.567 1.036,0.74 2.264,1.038 3.684,0.895 1.61,-0.162 2.93,-0.889 3.959,-2.182 2.127,-2.667 3.773,-5.873 4.939,-9.62 0.053,-0.169 0.177,-0.718 0.371,-1.648 0.116,-0.553 0.291,-1.089 0.528,-1.609 0.008,-0.019 0.019,-0.037 0.033,-0.052 0.052,-0.061 0.121,-0.077 0.154,-0.035 0.028,0.039 0.036,0.104 0.025,0.194 -0.144,1.069 -0.239,2.427 -0.286,4.076 -0.117,4.303 -0.244,8.606 -0.376,12.911 0.151,-0.522 0.31,-1.04 0.479,-1.552 1.373,-4.162 3.304,-8.055 5.221,-11.851 1.909,-3.783 3.774,-7.533 5.191,-11.438 1.42,-3.901 2.351,-7.972 2.294,-12.303 1.398,4.131 1.15,8.763 0.121,13.022 m -25.252,62.961 c 2.441,-1.797 4.634,-3.855 6.581,-6.175 0.127,-0.15 0.216,-0.185 0.268,-0.104 0.04,0.062 0.033,0.172 -0.018,0.285 -0.273,0.619 -0.594,1.213 -0.965,1.779 -3.452,5.29 -6.295,10.88 -8.526,16.773 -0.125,0.326 -0.521,1.492 -1.19,3.497 -0.389,1.168 -0.821,2.322 -1.297,3.462 -0.304,0.726 -0.685,0.804 -1.146,0.232 -0.035,-0.043 -0.079,-0.074 -0.124,-0.104 -0.03,-0.019 -0.061,-0.033 -0.094,-0.046 -0.03,-0.012 -0.06,-0.022 -0.091,-0.028 -0.033,-0.007 -0.065,-0.007 -0.098,-0.007 -0.032,0 -0.065,0.002 -0.098,0.008 -0.031,0.007 -0.06,0.018 -0.09,0.03 -0.033,0.013 -0.064,0.028 -0.093,0.048 -0.045,0.03 -0.088,0.062 -0.123,0.106 -1.998,2.547 -3.551,5.373 -4.659,8.479 -0.21,0.59 -0.423,0.59 -0.638,0 -0.84,-2.306 -1.91,-4.569 -3.213,-6.789 -0.483,-0.826 -1.071,-1.378 -1.766,-1.655 -0.022,-0.009 -0.045,-0.002 -0.067,0.002 -0.018,0.002 -0.035,0.004 -0.051,0.013 -0.015,0.009 -0.025,0.024 -0.036,0.039 -0.015,0.019 -0.032,0.035 -0.036,0.061 -0.565,3.436 -0.997,6.889 -1.298,10.358 -0.183,2.111 -0.432,4.216 -0.749,6.314 -0.631,4.169 -0.951,7.69 -0.961,10.56 -0.016,4.246 0.847,8.282 2.588,12.11 0.106,0.233 0.061,0.267 -0.135,0.101 -1.683,-1.448 -3.463,-2.766 -5.336,-3.952 -2.483,-1.572 -4.421,-3.307 -5.81,-5.203 -1.464,-1.996 -2.664,-4.409 -3.601,-7.24 -0.497,-1.506 -0.951,-3.304 -1.36,-5.394 -0.185,-0.95 -0.328,-1.837 -0.441,-2.679 0,0.026 -0.001,0.053 -0.001,0.079 0.003,4.955 1.107,9.648 3.008,14.228 1.828,4.593 4.252,9.071 6.15,13.882 0.937,2.406 1.802,4.87 2.285,7.441 0.489,2.56 0.666,5.189 0.338,7.736 -0.373,-2.546 -1,-4.972 -1.854,-7.314 -0.831,-2.348 -1.946,-4.589 -3.065,-6.828 -2.264,-4.469 -4.881,-8.861 -6.824,-13.725 -0.955,-2.428 -1.81,-4.945 -2.228,-7.591 -0.488,-2.629 -0.52,-5.312 -0.318,-7.923 0.459,-5.242 1.951,-10.214 3.904,-14.944 -0.085,0.639 -0.171,1.277 -0.257,1.914 0.261,-0.836 0.548,-1.668 0.882,-2.492 0.032,-0.084 0.07,-0.152 0.114,-0.205 0.178,-0.215 0.26,-0.133 0.246,0.246 -0.044,1.258 -0.018,2.513 0.076,3.764 0.083,1.117 0.294,2.351 0.632,3.702 0.754,3.029 1.597,5.824 2.529,8.384 0.042,0.111 0.115,0.174 0.218,0.187 0.025,0.004 0.043,-0.013 0.065,-0.023 0.018,-0.008 0.037,-0.013 0.051,-0.028 0.013,-0.016 0.019,-0.039 0.027,-0.059 0.01,-0.025 0.024,-0.047 0.024,-0.077 -0.055,-1.561 -0.075,-2.508 -0.059,-2.841 0.092,-2.038 0.491,-5.129 1.197,-9.276 0.367,-2.156 0.674,-4.188 0.919,-6.099 0.262,-2.042 0.539,-4.082 0.833,-6.119 0.397,-2.778 1.124,-5.465 2.179,-8.062 1.833,-4.533 4.801,-8.033 8.904,-10.501 0.38,-0.229 0.48,-0.14 0.302,0.267 -0.381,0.863 -0.632,1.761 -0.753,2.696 -0.231,1.762 -0.493,3.519 -0.787,5.273 -0.768,4.576 -0.945,9.07 -0.531,13.48 0.039,0.421 0.204,0.478 0.493,0.17 4.905,-5.254 10.23,-9.995 15.974,-14.223 m -22.158,-27.168 c -1.847,5.341 -4.44,10.332 -7.08,15.188 -2.636,4.845 -5.273,9.629 -7.379,14.63 -2.108,4.993 -3.638,10.232 -3.956,15.803 -0.088,-0.472 -0.144,-0.949 -0.204,-1.424 -0.075,0.299 -0.157,0.596 -0.255,0.89 -0.478,-2.67 -1.154,-5.112 -1.883,-7.61 -0.723,-2.49 -1.461,-5.034 -1.893,-7.729 -0.444,-2.7 -0.455,-5.538 0.046,-8.237 0.499,-2.702 1.466,-5.318 3.002,-7.56 -0.28,2.698 -0.508,5.256 -0.494,7.796 -10e-4,2.543 0.202,5.006 0.607,7.502 0.334,2.118 0.755,4.288 1.045,6.525 0.354,-2.318 0.916,-4.612 1.631,-6.826 1.737,-5.386 4.28,-10.42 6.922,-15.288 2.64,-4.858 5.334,-9.619 7.546,-14.581 2.215,-4.957 3.903,-10.143 4.459,-15.695 0.801,5.55 -0.279,11.31 -2.114,16.616 m -24.341,74.416 c -2.633,-1.95 -4.908,-4.326 -6.93,-6.896 -2.014,-2.578 -3.747,-5.381 -5.185,-8.326 -0.484,-0.992 -0.922,-2.006 -1.338,-3.029 0.015,0.069 0.027,0.139 0.042,0.208 1.083,5.276 2.167,10.406 4.159,15.248 0.966,2.428 2.079,4.798 3.33,7.102 1.269,2.293 2.676,4.513 4.206,6.658 2.922,4.142 6.407,7.88 10.225,11.408 0.186,0.131 0.364,0.267 0.554,0.396 0.458,0.309 0.411,0.451 -0.139,0.426 -2.532,-0.127 -5.048,-0.328 -7.545,-0.604 -0.65,-0.071 -1.188,-0.173 -1.613,-0.305 -0.618,-0.192 -1.122,-0.418 -1.513,-0.68 -0.532,-0.358 -0.619,-0.273 -0.26,0.257 1.128,1.681 2.327,3.284 3.597,4.808 1.697,2.037 3.767,3.576 6.206,4.614 1.178,0.502 2.373,0.963 3.587,1.384 0.047,0.016 0.089,0.042 0.123,0.078 0.123,0.124 0.122,0.322 -0.001,0.442 -0.169,0.171 -0.426,0.321 -0.77,0.448 -2.022,0.758 -4.138,1.394 -6.349,1.908 -0.212,0.048 -0.238,0.145 -0.076,0.291 0.324,0.289 0.616,0.596 0.878,0.919 0.206,0.253 0.425,0.613 0.659,1.083 0.723,1.457 1.541,2.855 2.452,4.194 0.671,0.985 1.58,2.085 2.727,3.299 0.981,1.043 1.969,2.078 2.966,3.105 0.479,0.492 0.994,0.938 1.547,1.335 0.379,0.275 0.376,0.409 -0.011,0.399 -0.078,-0.002 -0.168,-0.016 -0.27,-0.042 -1.476,-0.39 -2.966,-0.715 -4.472,-0.974 -0.744,-0.127 -1.466,-0.342 -2.168,-0.642 -0.73,-0.312 -0.865,-0.144 -0.402,0.503 0.522,0.735 1.005,1.495 1.446,2.279 0.581,1.029 1.059,1.787 1.434,2.272 1.856,2.415 3.996,4.548 6.417,6.401 0.735,0.564 1.455,1.002 2.158,1.315 0.774,0.346 1.576,0.63 2.404,0.849 0.447,0.121 0.45,0.254 0.01,0.399 -0.222,0.072 -0.458,0.081 -0.707,0.028 -0.338,-0.074 -0.515,-0.112 -0.531,-0.114 -4.27,-0.586 -8.173,-2.098 -11.712,-4.538 -1.826,-1.258 -3.262,-2.429 -4.305,-3.514 -3.296,-3.434 -6.311,-7.424 -9.047,-11.968 -0.003,-0.005 -0.436,-0.764 -1.3,-2.279 -1.717,-3.004 -3.752,-5.78 -6.106,-8.326 -0.435,-0.469 -0.833,-0.968 -1.193,-1.495 -0.329,-0.479 -0.242,-0.566 0.26,-0.26 2.579,1.575 5.355,1.995 8.329,1.259 0.006,-0.002 0.013,-0.004 0.019,-0.007 0.079,-0.031 0.116,-0.121 0.085,-0.201 -0.893,-2.274 -2.1,-5.153 -3.622,-8.638 -1.283,-2.944 -2.727,-5.687 -4.333,-8.228 -1.057,-1.67 -2.262,-3.161 -3.614,-4.472 -1.383,-1.341 -2.851,-2.59 -4.403,-3.747 -0.451,-0.338 -0.501,-0.583 -0.149,-0.735 0.092,-0.041 0.208,-0.043 0.326,-0.007 2.096,0.599 4.191,1.199 6.286,1.8 1.623,0.468 3.217,1.015 4.781,1.641 1.317,0.528 2.381,0.99 3.249,1.4 -1.051,-1.384 -2.04,-2.818 -2.947,-4.307 -1.421,-2.374 -2.652,-4.864 -3.677,-7.439 -1.04,-2.568 -1.825,-5.246 -2.409,-7.943 -0.574,-2.699 -0.947,-5.394 -1.263,-8.082 -0.595,-5.178 -0.915,-10.389 -0.773,-15.606 -0.002,-0.294 -0.022,-0.588 -0.016,-0.884 1.23,3.031 2.348,6.002 3.574,8.915 1.216,2.914 2.495,5.775 3.873,8.59 1.378,2.814 2.851,5.581 4.404,8.329 1.546,2.756 3.203,5.463 4.836,8.298 m 5.383,159.97 c 0.143,-1.517 0.623,-2.8 1.3,-4 0.679,-1.193 1.601,-2.269 2.734,-3.143 1.141,-0.876 2.49,-1.533 3.951,-1.789 1.448,-0.251 3.034,-0.13 4.32,0.714 -1.277,0.824 -2.235,1.503 -3.16,2.198 l -2.667,2.043 c -0.892,0.688 -1.812,1.402 -2.855,2.097 -1.047,0.689 -2.175,1.396 -3.623,1.88 m 22.576,-110.955 c 1.978,1.55 3.451,3.671 4.594,5.884 1.14,2.227 1.941,4.577 2.593,6.913 0.65,2.341 1.154,4.676 1.643,7.002 0.482,2.334 0.982,4.635 1.526,7.071 -1.724,-1.824 -2.938,-4.052 -3.917,-6.309 -0.974,-2.269 -1.69,-4.601 -2.334,-6.904 l -1.853,-6.843 c -0.632,-2.266 -1.361,-4.48 -2.252,-6.814 m 3.287,75.711 c -2.208,0.781 -3.951,1.806 -5.831,2.86 -1.887,1.061 -3.744,2.036 -5.465,3.091 -1.724,1.063 -3.303,2.193 -4.741,3.567 -1.439,1.384 -2.708,2.957 -3.796,5.036 -0.591,-2.306 0.066,-4.864 1.3,-6.957 1.25,-2.119 3.127,-3.825 5.147,-5.055 2.035,-1.24 4.212,-2.063 6.417,-2.605 2.197,-0.535 4.753,-0.841 6.969,0.063 m -17.504,-39.381 c 0.856,2.251 1.527,4.454 2.506,6.364 1.112,2.252 2.522,4.381 3.931,6.671 1.395,2.272 2.82,4.766 3.641,7.547 0.823,2.735 1.052,5.899 -0.143,8.51 -0.499,-2.784 -1.517,-5.075 -2.769,-7.306 -1.236,-2.23 -2.711,-4.332 -4.139,-6.661 -1.413,-2.309 -2.789,-4.86 -3.48,-7.719 -0.401,-1.664 -0.507,-3.308 -0.424,-4.927 -0.017,0.041 -0.028,0.085 -0.046,0.126 -0.595,1.349 -1.048,2.744 -1.361,4.187 -0.754,3.483 -1.133,7.009 -1.138,10.577 -10e-4,1.878 0.387,5.197 1.166,9.956 0.019,0.123 -0.024,0.154 -0.128,0.094 -0.296,-0.171 -0.495,-0.433 -0.597,-0.787 -1.723,-6.013 -3.084,-12.107 -4.083,-18.282 -0.599,-3.71 -0.576,-7.265 0.066,-10.667 0.088,-0.461 0.3,-1.322 0.635,-2.585 0.375,-1.408 0.546,-2.281 0.514,-2.619 -0.047,-0.499 0.103,-0.565 0.45,-0.198 0.177,0.187 0.426,0.289 0.684,0.278 1.45,-0.063 2.585,-0.739 3.407,-2.03 0.64,-1.008 1.288,-2.014 1.942,-3.018 0.083,-0.127 0.149,-0.119 0.194,0.025 1.314,4.021 2.779,8.011 4.396,11.968 1.322,3.24 3.073,5.98 5.252,8.218 0.106,0.109 0.167,0.205 0.184,0.288 0.03,0.144 -0.031,0.168 -0.181,0.073 -3.097,-1.945 -5.729,-3.771 -7.896,-5.478 -0.788,-0.624 -1.647,-1.492 -2.577,-2.601 -0.003,-0.003 -0.004,-0.001 -0.006,-0.004 m 35.99,-28.204 c -0.011,2.837 0.059,5.647 0.236,8.453 0.176,2.805 0.461,5.602 0.829,8.416 0.358,2.818 0.84,5.633 1.265,8.566 -1.664,-2.459 -2.845,-5.201 -3.718,-8.032 -0.863,-2.836 -1.38,-5.783 -1.569,-8.748 -0.19,-2.965 -0.05,-5.954 0.447,-8.877 0.508,-2.919 1.334,-5.788 2.679,-8.437 -0.047,2.965 -0.169,5.818 -0.169,8.659 m -34.017,117.601 c 0.793,-1.865 1.768,-3.617 2.885,-5.231 1.108,-1.631 2.279,-3.221 3.534,-4.748 1.175,-1.424 2.407,-2.805 3.788,-4.066 0.005,-0.01 0.012,-0.021 0.017,-0.031 0.048,-0.109 0.017,-0.142 -0.094,-0.098 l -8.441,3.393 c -0.126,0.053 -0.162,0.017 -0.103,-0.108 0.416,-0.876 0.83,-1.733 1.241,-2.57 0.505,-1.022 0.976,-1.846 1.412,-2.473 2.451,-3.504 5.771,-5.916 9.956,-7.237 0.424,-0.134 1.551,-0.302 3.383,-0.503 0.118,-0.011 0.12,-0.033 0.007,-0.066 -1.721,-0.485 -3.66,-0.614 -5.817,-0.385 -2.26,0.241 -3.922,-0.395 -4.986,-1.908 -0.818,-1.163 -1.198,-2.693 -1.137,-4.589 0.064,-2.017 0.661,-3.836 1.79,-5.457 0.799,-1.154 2.071,-2.436 3.812,-3.844 1.413,-1.145 2.941,-2.132 4.582,-2.963 1.797,-0.908 3.052,-1.499 3.765,-1.772 3.695,-1.411 7.257,-3.096 10.684,-5.054 0.41,-0.234 0.807,-0.512 1.194,-0.833 0.374,-0.315 0.75,-0.627 1.127,-0.937 0.09,-0.076 0.078,-0.114 -0.038,-0.114 -0.717,-0.003 -1.429,0.045 -2.137,0.142 -0.955,0.132 -1.663,0.179 -2.123,0.142 -1.393,-0.113 -2.711,-0.465 -3.955,-1.054 -1.256,-0.592 -2.33,-1.298 -3.223,-2.116 -0.967,-0.882 -1.723,-1.951 -2.268,-3.209 -0.727,-1.677 -0.828,-3.259 -0.302,-4.746 0.825,-2.329 1.853,-4.571 3.084,-6.726 0.027,-0.049 0.02,-0.102 0.018,-0.153 -0.002,-0.036 -0.008,-0.07 -0.022,-0.102 -0.016,-0.032 -0.038,-0.057 -0.065,-0.082 -0.038,-0.035 -0.075,-0.074 -0.13,-0.083 -1.308,-0.234 -2.58,-0.948 -3.815,-2.144 -0.299,-0.289 -0.351,-0.618 -0.156,-0.985 0.196,-0.372 0.567,-0.72 1.113,-1.041 2.28,-1.341 4.751,-1.994 7.41,-1.96 1.707,0.021 1.859,-0.193 0.454,-0.642 -0.808,-0.261 -1.548,-0.74 -2.219,-1.436 -0.764,-0.793 -1.158,-1.201 -1.183,-1.224 -1.409,-1.365 -2.561,-2.927 -3.455,-4.687 -0.008,-0.014 -0.013,-0.03 -0.014,-0.046 0,-0.007 0.006,-0.011 0.007,-0.017 0.002,-0.015 0.007,-0.025 0.015,-0.038 0.007,-0.013 0.013,-0.022 0.025,-0.031 0.005,-0.004 0.006,-0.011 0.013,-0.015 0.014,-0.007 0.03,-0.012 0.047,-0.013 0.437,-0.021 1.095,-0.084 1.974,-0.191 7.255,-0.88 13.032,1.529 17.331,7.23 0.002,0.002 0.003,0.004 0.005,0.007 0.015,0.021 0.02,0.044 0.031,0.067 0.01,0.024 0.026,0.047 0.032,0.072 0.006,0.026 0.003,0.051 0.004,0.077 0.001,0.025 0.006,0.05 0.002,0.074 -0.004,0.026 -0.017,0.048 -0.026,0.073 -0.008,0.023 -0.012,0.048 -0.026,0.07 -0.013,0.022 -0.035,0.039 -0.053,0.059 -0.016,0.018 -0.028,0.039 -0.049,0.055 -0.002,0.001 -0.005,0.003 -0.007,0.004 -3.091,2.23 -5.367,5.047 -6.827,8.451 -0.536,1.258 -0.786,2.379 -0.749,3.361 0.049,1.303 0.464,2.428 1.245,3.376 0.808,0.978 2.179,1.793 4.115,2.446 2.544,0.858 5.178,1.231 7.902,1.12 0.22,-0.009 0.251,0.062 0.094,0.215 -2.97,2.919 -5.312,6.254 -7.029,10.005 -1.391,3.046 -2.779,6.221 -4.162,9.526 -0.055,0.132 -0.015,0.172 0.121,0.121 1.786,-0.654 3.545,-1.061 5.28,-1.221 0.687,-0.065 0.747,0.099 0.18,0.493 -1.054,0.728 -2.061,1.512 -3.021,2.352 -1.001,0.869 -1.934,1.737 -2.796,2.602 -4.02,4.017 -6.624,8.859 -7.813,14.525 -0.021,0.104 -0.093,0.193 -0.194,0.239 -2.534,1.156 -4.865,2.824 -6.993,5.002 -3.883,3.976 -7.149,7.532 -9.8,10.671 -2.554,3.025 -5.483,5.903 -8.791,8.634 -0.57,0.472 -0.854,0.553 -0.866,0.261 -0.002,0.005 -0.005,0.009 -0.007,0.013 -0.099,-2.03 0.444,-4.064 1.213,-5.929 m 17.79,6.613 c 3.014,-2.942 6.106,-5.708 9.163,-8.5 l 9.149,-8.351 9.063,-8.442 c 3.03,-2.822 6.035,-5.682 9.207,-8.451 -2.154,3.62 -4.684,6.976 -7.388,10.181 -2.712,3.199 -5.632,6.219 -8.713,9.064 -3.083,2.845 -6.329,5.513 -9.735,7.959 -3.412,2.437 -6.961,4.688 -10.746,6.54 m 36.538,-56.652 c -2.515,0.713 -4.96,1.621 -7.383,2.83 -0.055,0.075 -0.118,0.142 -0.173,0.219 0.015,-0.054 0.041,-0.107 0.057,-0.161 -0.337,0.17 -0.675,0.325 -1.011,0.508 0.42,-0.553 0.888,-1.067 1.381,-1.557 0.576,-1.394 1.437,-2.697 2.456,-3.839 1.315,-1.471 2.85,-2.724 4.43,-3.833 3.193,-2.212 6.438,-3.99 9.48,-6.07 3.05,-2.051 5.939,-4.266 8.448,-6.882 2.514,-2.615 4.649,-5.611 6.174,-9.126 -0.217,3.853 -1.913,7.602 -4.246,10.748 -2.352,3.173 -5.383,5.765 -8.591,7.917 -3.2,2.179 -6.687,3.853 -9.948,5.55 -1.468,0.782 -2.907,1.602 -4.256,2.548 0.75,-0.439 1.52,-0.841 2.3,-1.202 2.924,-1.35 5.998,-2.218 9.027,-2.941 3.035,-0.724 6.046,-1.294 9.006,-1.987 2.968,-0.688 5.866,-1.518 8.811,-2.705 -2.208,2.31 -5.102,3.911 -8.047,5.105 -2.963,1.194 -6.023,1.985 -9.03,2.7 -3.012,0.715 -5.984,1.348 -8.885,2.178 m 27.68,-99.576 c -0.842,1.066 -1.661,2.095 -2.459,3.087 -1.487,1.846 -2.319,2.863 -2.494,3.053 -2.982,3.24 -6.735,4.763 -11.261,4.568 -1.268,-0.053 -2.273,-0.28 -3.018,-0.683 -0.999,-0.539 -1.722,-1.342 -2.169,-2.411 -0.333,-0.8 -0.415,-1.614 -0.246,-2.442 0.171,-0.841 0.535,-1.613 1.09,-2.314 0.467,-0.594 1.157,-1.294 2.07,-2.099 1.016,-0.897 2.091,-1.475 3.227,-1.734 1.207,-0.273 2.427,-0.452 3.66,-0.538 0.572,-0.039 1.253,-0.011 2.046,0.084 0.681,0.078 1.361,0.145 2.044,0.201 0.945,0.076 1.959,0.216 3.039,0.419 1.429,0.273 2.881,0.457 4.357,0.552 0.201,0.014 0.239,0.1 0.114,0.257 m 0.066,32.05 c -2.77,1.048 -5.558,2.051 -8.364,3.008 -0.874,0.298 -1.634,0.532 -2.278,0.701 -0.681,0.177 -1.374,0.194 -2.082,0.048 -0.648,-0.134 -1.334,-0.308 -2.061,-0.52 -0.009,-0.003 -0.018,-0.006 -0.026,-0.011 -0.014,-0.007 -0.018,-0.023 -0.029,-0.033 -0.013,-0.014 -0.028,-0.025 -0.035,-0.043 -0.008,-0.018 -0.006,-0.035 -0.006,-0.055 -0.001,-0.015 -0.009,-0.028 -0.005,-0.043 0.003,-0.01 0.006,-0.019 0.011,-0.027 0.43,-0.842 1.051,-1.503 1.863,-1.984 1.328,-0.786 2.453,-1.79 3.376,-3.011 0.066,-0.088 0.046,-0.115 -0.06,-0.08 -0.529,0.18 -1.162,0.269 -1.898,0.267 -1.861,-0.009 -3.133,-0.038 -3.815,-0.087 -3.333,-0.233 -6.015,-1.657 -8.045,-4.27 -0.68,-0.876 -1.336,-1.997 -1.967,-3.362 -0.055,-0.117 -0.078,-0.221 -0.066,-0.312 0.028,-0.229 0.168,-0.255 0.42,-0.08 0.101,0.072 0.212,0.112 0.315,0.115 2.179,0.044 4.658,-0.066 7.435,-0.33 2.389,-0.226 4.648,-0.647 6.778,-1.262 1.376,-0.398 2.698,-0.944 3.965,-1.638 1.259,-0.687 2.471,-1.455 3.636,-2.303 0.754,-0.551 1.611,-1.068 2.57,-1.551 0.261,-0.129 0.565,-0.13 0.826,-0.003 0.7,0.344 1.46,0.563 2.28,0.655 1.866,0.211 3.734,0.304 5.605,0.282 1.594,-0.019 3.021,-0.239 4.281,-0.66 2.037,-0.682 3.845,-1.651 5.422,-2.907 1.931,-1.54 4.026,-3.55 6.286,-6.029 0.476,-0.521 0.955,-0.658 1.439,-0.411 0.006,-0.085 0.011,-0.169 0.017,-0.255 0.024,0.102 0.041,0.205 0.064,0.307 0.134,0.08 0.267,0.182 0.402,0.321 0.076,0.078 0.126,0.182 0.142,0.295 0.09,0.658 0.078,1.368 -0.011,2.12 0.815,4.691 1.13,9.469 1.091,14.243 -0.059,5.813 -0.691,11.629 -1.832,17.34 -1.143,5.711 -2.801,11.321 -4.986,16.709 -2.194,5.381 -4.865,10.571 -8.222,15.299 1.859,-5.486 3.685,-10.875 5.247,-16.33 1.572,-5.448 2.93,-10.93 4.039,-16.464 1.112,-5.534 1.973,-11.116 2.622,-16.748 0.351,-2.99 0.623,-5.994 0.862,-9.016 -0.308,1.15 -0.586,2.124 -0.833,2.91 -0.918,2.922 -2.299,5.56 -4.141,7.917 -1.21,1.545 -2.732,2.924 -4.566,4.138 -2.28,1.511 -4.713,2.748 -7.299,3.712 -0.111,0.042 -0.124,0.022 -0.038,-0.059 1.915,-1.815 3.425,-3.925 4.531,-6.327 0.349,-0.764 0.611,-1.557 0.784,-2.38 0.093,-0.432 -0.008,-0.483 -0.302,-0.153 -1.121,1.267 -2.399,2.391 -3.833,3.372 -1.043,0.715 -2.495,1.584 -4.357,2.609 -1.659,0.911 -3.375,1.703 -5.152,2.376 m 26.744,-38.658 c -2.323,0.757 -3.926,2.092 -5.334,3.601 -1.387,1.503 -2.489,3.264 -3.698,5.149 -1.203,1.869 -2.501,3.901 -4.289,5.647 -1.748,1.708 -4.078,3.192 -6.574,3.257 1.82,-1.628 3.003,-3.371 4.121,-5.232 1.107,-1.844 2.091,-3.831 3.375,-5.832 1.27,-1.974 2.876,-4.026 5.089,-5.426 1.095,-0.684 2.303,-1.216 3.575,-1.457 1.272,-0.221 2.596,-0.193 3.735,0.293 m 0.595,-35.456 c -4.245,-1.208 -8.344,-2.946 -11.978,-5.407 4.28,0.931 8.439,1.777 12.622,2.336 4.175,0.57 8.348,0.9 12.527,0.964 4.179,0.064 8.359,-0.136 12.55,-0.575 4.198,-0.427 8.382,-1.141 12.69,-1.932 -3.708,2.35 -7.86,3.96 -12.14,5.033 -4.289,1.063 -8.732,1.544 -13.163,1.473 -4.43,-0.072 -8.856,-0.694 -13.108,-1.892 m 40.699,49.853 c -1.788,-1.746 -3.086,-3.778 -4.289,-5.647 -1.209,-1.885 -2.31,-3.646 -3.698,-5.149 -1.407,-1.509 -3.011,-2.844 -5.334,-3.601 1.14,-0.486 2.463,-0.514 3.735,-0.293 1.273,0.241 2.481,0.773 3.576,1.457 2.212,1.4 3.818,3.452 5.088,5.426 1.285,2.001 2.268,3.988 3.375,5.832 1.119,1.861 2.301,3.604 4.122,5.232 -2.497,-0.065 -4.827,-1.549 -6.575,-3.257 m 13.261,-7.989 c -0.001,-0.033 0.008,-0.059 0.021,-0.09 0.011,-0.031 0.022,-0.056 0.044,-0.08 0.01,-0.009 0.009,-0.025 0.02,-0.033 0.032,-0.025 0.07,-0.041 0.111,-0.048 2.921,-0.481 5.734,-0.685 8.44,-0.611 1.517,0.042 2.848,0.233 3.993,0.573 1.327,0.395 2.571,0.941 3.732,1.637 1.263,0.761 2.18,1.773 2.751,3.036 0.592,1.309 0.696,2.587 0.309,3.836 -0.497,1.607 -1.712,2.605 -3.646,2.994 -3.541,0.71 -6.656,-0.135 -9.345,-2.536 -1.533,-1.369 -2.885,-3.077 -4.056,-5.124 -0.433,-0.753 -0.797,-1.336 -1.093,-1.748 -0.421,-0.583 -0.835,-1.136 -1.241,-1.658 -0.025,-0.033 -0.042,-0.071 -0.049,-0.112 -0.002,-0.013 0.009,-0.023 0.009,-0.036 m -27.313,23.345 c -0.043,-5.195 0.329,-10.396 1.315,-15.482 -0.016,-0.457 0.069,-0.86 0.25,-1.213 0.042,-0.197 0.078,-0.394 0.122,-0.591 0.008,0.12 0.017,0.238 0.024,0.357 0.035,-0.05 0.057,-0.105 0.096,-0.153 0.325,-0.402 0.688,-0.439 1.085,-0.11 1.183,0.961 2.186,2.064 3.012,3.306 0.47,0.702 1.006,1.342 1.609,1.918 0.24,0.229 0.862,0.784 1.864,1.665 2.65,2.329 5.704,3.8 9.161,4.413 0.881,0.157 2.278,0.239 4.19,0.246 1.404,0.005 2.808,0.044 4.212,0.118 0.113,0.004 0.219,0.039 0.315,0.104 3.163,2.045 6.565,3.549 10.21,4.513 2.206,0.585 5.208,1.094 9.005,1.527 2.079,0.235 3.895,0.143 5.447,-0.278 0.113,-0.03 0.153,0.011 0.118,0.121 -0.514,1.613 -1.277,2.843 -2.289,3.691 -1.738,1.453 -3.928,2.269 -6.571,2.45 -2.026,0.138 -4.483,0.141 -7.372,0.007 -0.028,-0.002 -0.049,0.014 -0.074,0.022 -0.024,0.008 -0.053,0.009 -0.071,0.023 -0.019,0.015 -0.022,0.038 -0.032,0.058 -0.011,0.02 -0.031,0.036 -0.031,0.06 -0.005,0.157 0.083,0.287 0.264,0.388 0.558,0.317 1.104,0.651 1.641,1.003 0.312,0.206 0.809,0.609 1.492,1.21 0.889,0.787 1.764,1.279 2.622,1.479 1.059,0.247 1.198,0.534 0.416,0.859 -0.256,0.109 -0.455,0.201 -0.597,0.275 -0.795,0.425 -1.429,0.654 -1.9,0.686 -1.758,0.121 -3.836,-0.153 -6.235,-0.821 -5.462,-1.529 -10.416,-4.053 -14.861,-7.57 -1.89,-1.494 -3.312,-2.835 -4.27,-4.024 -0.074,-0.092 -0.116,-0.08 -0.124,0.038 -0.056,0.712 -0.008,1.261 0.145,1.644 1.177,2.984 3.039,5.436 5.585,7.358 0.108,0.082 0.162,0.195 0.132,0.274 -0.035,0.093 -0.139,0.108 -0.313,0.045 -1.736,-0.645 -3.419,-1.4 -5.047,-2.265 -1.838,-0.978 -3.334,-2.04 -4.486,-3.185 -1.677,-1.667 -3.075,-3.652 -4.197,-5.956 -1.653,-3.394 -2.916,-6.771 -3.798,-10.131 0.288,3.941 0.611,7.845 1.067,11.727 0.65,5.632 1.51,11.214 2.622,16.748 1.11,5.534 2.467,11.016 4.04,16.464 1.561,5.455 3.387,10.844 5.247,16.33 -3.358,-4.728 -6.029,-9.918 -8.223,-15.299 -2.185,-5.388 -3.842,-10.998 -4.985,-16.709 -1.142,-5.711 -1.773,-11.527 -1.832,-17.34 m 29.259,66.448 c 2.946,1.187 5.844,2.017 8.812,2.705 2.96,0.693 5.971,1.263 9.006,1.987 3.029,0.723 6.102,1.591 9.026,2.941 0.78,0.361 1.551,0.763 2.301,1.202 -1.35,-0.946 -2.788,-1.766 -4.257,-2.548 -3.261,-1.697 -6.748,-3.371 -9.947,-5.55 -3.208,-2.152 -6.239,-4.744 -8.592,-7.917 -2.333,-3.146 -4.028,-6.895 -4.245,-10.748 1.524,3.515 3.659,6.511 6.174,9.126 2.508,2.616 5.397,4.831 8.447,6.882 3.042,2.08 6.287,3.858 9.48,6.07 1.58,1.109 3.116,2.362 4.43,3.833 1.02,1.142 1.88,2.445 2.456,3.839 0.494,0.49 0.961,1.004 1.381,1.557 -0.336,-0.182 -0.674,-0.338 -1.01,-0.507 0.016,0.054 0.041,0.106 0.057,0.16 -0.056,-0.077 -0.117,-0.144 -0.173,-0.219 -2.423,-1.209 -4.867,-2.116 -7.384,-2.83 -2.9,-0.83 -5.873,-1.463 -8.885,-2.178 -3.006,-0.715 -6.067,-1.506 -9.03,-2.7 -2.944,-1.194 -5.839,-2.795 -8.047,-5.105 m 25.918,32.891 c 3.172,2.769 6.177,5.629 9.207,8.451 l 9.065,8.442 9.147,8.351 c 3.058,2.792 6.15,5.558 9.163,8.5 -3.785,-1.852 -7.334,-4.103 -10.746,-6.54 -3.406,-2.446 -6.652,-5.114 -9.734,-7.959 -3.081,-2.845 -6.002,-5.865 -8.714,-9.064 -2.703,-3.205 -5.233,-6.561 -7.388,-10.181 m 20.356,-90.47 c 0,-2.841 -0.122,-5.694 -0.169,-8.659 1.345,2.649 2.171,5.518 2.679,8.437 0.497,2.923 0.636,5.912 0.447,8.877 -0.19,2.965 -0.706,5.912 -1.57,8.748 -0.873,2.831 -2.053,5.573 -3.717,8.032 0.425,-2.933 0.906,-5.748 1.264,-8.566 0.369,-2.814 0.654,-5.611 0.829,-8.416 0.177,-2.806 0.248,-5.616 0.237,-8.453 m 16.535,102.862 c -1.837,-1.758 -4.113,-3.05 -6.831,-3.879 -0.296,-0.09 -0.497,-0.365 -0.496,-0.676 0.007,-1.261 -0.224,-2.57 -0.694,-3.927 -1.793,-5.188 -4.869,-9.44 -9.231,-12.759 -1.075,-0.821 -2.379,-1.574 -3.909,-2.259 -0.183,-0.08 -0.274,-0.205 -0.271,-0.374 0,-0.008 0.001,-0.017 0.003,-0.025 0.003,-0.017 0.02,-0.025 0.029,-0.04 0.01,-0.018 0.017,-0.035 0.035,-0.048 0.017,-0.013 0.038,-0.014 0.06,-0.019 0.018,-0.005 0.031,-0.018 0.05,-0.017 0.009,0 0.019,0.001 0.027,0.003 l 5.294,1.02 c 0.57,0.111 0.717,-0.08 0.445,-0.572 -0.776,-1.404 -1.495,-2.893 -2.161,-4.468 -0.005,-0.009 -0.376,-1.012 -1.115,-3.008 -0.929,-2.521 -2.25,-4.818 -3.961,-6.893 -0.858,-1.038 -1.469,-1.724 -1.836,-2.057 -0.612,-0.562 -1.373,-1.089 -2.282,-1.582 -0.437,-0.238 -0.507,-0.415 -0.208,-0.531 0.086,-0.035 0.213,-0.057 0.382,-0.066 3.09,-0.176 6.052,-0.875 8.888,-2.098 2.162,-0.933 3.53,-2.452 4.103,-4.559 0.229,-0.839 0.225,-1.77 -0.013,-2.792 -0.944,-4.045 -3.151,-7.332 -6.62,-9.859 -0.212,-0.155 -0.269,-0.449 -0.128,-0.673 1.51,-2.422 3.519,-4.2 6.026,-5.336 2.26,-1.022 4.007,-1.599 5.241,-1.731 1.856,-0.196 4.92,-0.198 9.193,-0.007 0.116,0.005 0.132,0.048 0.049,0.128 -1.847,1.8 -3.678,3.617 -5.492,5.451 -0.871,0.88 -2.1,1.652 -3.684,2.314 -0.185,0.076 -0.269,0.155 -0.252,0.239 0.02,0.097 0.189,0.165 0.505,0.204 0.248,0.031 0.496,0.039 0.743,0.028 3.096,-0.162 5.728,0.541 7.895,2.11 0.532,0.383 0.758,0.877 0.677,1.481 -0.013,0.107 -0.073,0.208 -0.166,0.281 -1.342,1.038 -2.884,1.839 -4.628,2.404 -0.049,0.015 -0.079,0.053 -0.107,0.091 -0.018,0.024 -0.028,0.051 -0.035,0.08 -0.007,0.028 -0.011,0.056 -0.007,0.086 0.007,0.047 0.016,0.095 0.051,0.131 1.742,1.784 2.94,3.912 3.595,6.387 0.224,0.844 0.348,1.358 0.371,1.543 0.063,0.5 0.028,1.038 -0.1,1.613 -0.421,1.883 -1.247,3.431 -2.474,4.645 -1.097,1.085 -2.532,1.968 -4.309,2.647 -2.03,0.778 -4.259,1.042 -6.684,0.795 -0.534,-0.054 -0.6,0.096 -0.195,0.447 0.751,0.657 1.756,1.222 3.015,1.693 5.233,1.966 10.175,4.5 14.823,7.601 1.989,1.329 3.765,2.9 5.328,4.711 1.062,1.232 1.887,2.607 2.477,4.124 0.527,1.363 0.689,2.736 0.486,4.122 -0.136,0.943 -0.477,1.718 -1.023,2.324 -0.595,0.659 -1.343,1.135 -2.245,1.429 -0.939,0.306 -1.699,0.465 -2.283,0.479 -2.608,0.062 -4.191,0.127 -4.749,0.194 -0.652,0.079 -0.774,0.205 -0.368,0.379 0.079,0.032 0.182,0.063 0.309,0.093 5.725,1.341 10.118,4.512 13.183,9.512 0.628,1.027 1.077,2.044 1.342,3.049 0.097,0.373 -0.026,0.474 -0.371,0.302 -1.6,-0.795 -3.228,-1.49 -4.885,-2.085 -0.335,-0.12 -1.011,-0.291 -2.029,-0.513 -0.774,-0.169 -1.431,-0.419 -1.967,-0.749 -0.505,-0.313 -0.571,-0.244 -0.215,0.189 -0.041,-0.103 -0.086,-0.201 -0.125,-0.304 1.53,1.323 2.875,2.798 4.165,4.317 1.286,1.522 2.488,3.109 3.627,4.736 1.151,1.611 2.157,3.362 2.983,5.231 0.722,1.684 1.256,3.511 1.294,5.353 0.052,0.124 0.093,0.25 0.145,0.373 0.152,0.348 0.096,0.403 -0.147,0.194 0,0.014 0.001,0.028 0,0.041 -0.012,-0.024 -0.025,-0.046 -0.036,-0.07 -0.01,-0.009 -0.014,-0.011 -0.025,-0.02 -1.648,-1.54 -3.192,-3.248 -4.631,-5.123 -4.222,-5.505 -8.839,-10.656 -13.851,-15.455 m 8.748,-66.422 c 1.607,-2.223 3.038,-4.526 4.291,-6.911 0.49,-0.932 1.676,-3.447 3.556,-7.545 0.83,-1.815 1.513,-3.727 2.05,-5.734 0.067,-0.255 0.164,-0.267 0.289,-0.035 0.605,1.108 1.297,2.249 2.077,3.424 0.27,0.407 0.612,0.711 1.023,0.912 0.348,0.171 0.776,0.198 1.287,0.08 0.477,-0.108 0.946,-0.233 1.406,-0.375 0.008,-0.002 0.016,-0.004 0.025,-0.006 0.099,-0.016 0.191,0.049 0.207,0.145 0.095,0.546 0.183,1.052 0.264,1.52 0.074,0.427 0.19,0.929 0.35,1.505 0.585,2.091 0.917,4.33 0.995,6.716 0.125,3.786 -0.106,7.371 -0.693,10.754 -0.6,3.448 -1.661,7.779 -3.185,12.992 -0.175,0.592 -0.389,1.16 -0.642,1.703 -0.102,0.222 -0.155,0.211 -0.162,-0.031 -0.019,-0.671 0.027,-1.333 0.138,-1.988 0.203,-1.223 0.31,-1.874 0.319,-1.953 0.099,-0.881 0.206,-1.76 0.319,-2.636 0.139,-1.067 0.22,-1.95 0.243,-2.651 0.09,-2.585 -0.076,-4.947 -0.5,-7.084 -0.628,-3.177 -1.261,-6.434 -1.896,-9.751 0.204,1.968 0.15,3.974 -0.34,6.011 -0.692,2.858 -2.068,5.409 -3.48,7.719 -1.429,2.328 -2.903,4.43 -4.14,6.66 -1.251,2.231 -2.269,4.522 -2.768,7.306 -1.195,-2.611 -0.967,-5.775 -0.142,-8.509 0.819,-2.781 2.244,-5.275 3.64,-7.548 1.408,-2.29 2.82,-4.419 3.93,-6.671 0.811,-1.581 1.405,-3.365 2.07,-5.209 -3.219,2.963 -6.669,5.433 -10.357,7.391 -0.348,0.185 -0.405,0.117 -0.174,-0.201 m -5.763,-37.752 -1.852,6.843 c -0.645,2.303 -1.361,4.635 -2.334,6.904 -0.98,2.257 -2.194,4.485 -3.917,6.309 0.544,-2.436 1.044,-4.737 1.525,-7.071 0.489,-2.326 0.993,-4.661 1.644,-7.002 0.651,-2.336 1.453,-4.686 2.592,-6.913 1.143,-2.213 2.617,-4.334 4.594,-5.884 -0.89,2.334 -1.62,4.548 -2.252,6.814 m 5.935,68.834 c 2.204,0.542 4.382,1.365 6.417,2.605 2.019,1.23 3.896,2.936 5.146,5.055 1.235,2.093 1.891,4.651 1.301,6.957 -1.089,-2.079 -2.357,-3.652 -3.797,-5.036 -1.437,-1.374 -3.015,-2.504 -4.741,-3.567 -1.721,-1.055 -3.577,-2.03 -5.465,-3.091 -1.88,-1.054 -3.623,-2.079 -5.831,-2.86 2.216,-0.904 4.773,-0.598 6.97,-0.063 m 12.415,31.33 -2.666,-2.043 c -0.926,-0.695 -1.884,-1.374 -3.159,-2.198 1.285,-0.844 2.871,-0.965 4.318,-0.714 1.461,0.256 2.811,0.913 3.951,1.789 1.133,0.874 2.055,1.95 2.735,3.143 0.676,1.2 1.157,2.483 1.3,4 -1.449,-0.484 -2.577,-1.191 -3.624,-1.88 -1.043,-0.695 -1.963,-1.409 -2.855,-2.097 M 15.023,-19.864 c -0.09,-2.607 -0.662,-4.834 -1.713,-6.682 -0.056,-0.1 -0.1,-0.092 -0.132,0.021 -0.62,2.171 -1.407,4.272 -2.36,6.3 -1.045,2.231 -2.05,4.158 -3.017,5.779 -1.109,1.855 -2.412,3.605 -3.913,5.249 -0.465,0.509 -0.664,0.42 -0.597,-0.267 0.027,-0.294 0.109,-0.722 0.246,-1.284 0.867,-3.568 1.632,-7.388 2.293,-11.458 0.252,-1.552 0.409,-2.967 0.472,-4.246 0.255,-5.266 0.234,-10.53 -0.059,-15.791 -0.571,-10.206 -2.287,-20.211 -5.148,-30.014 -0.874,-2.997 -1.589,-6.033 -2.144,-9.106 -0.067,-0.37 -0.196,-0.64 -0.388,-0.809 -0.207,-0.182 -0.301,-0.136 -0.285,0.139 0.033,0.636 0.07,1.249 0.111,1.839 0.033,0.469 0.104,1.081 0.215,1.835 0.601,4.137 0.466,8.256 -0.406,12.357 -0.24,1.132 -1.116,3.973 -2.626,8.519 -1.753,5.275 -4.352,10.087 -7.799,14.435 -0.098,0.127 -0.151,0.11 -0.156,-0.052 -0.147,-6.496 -1.134,-12.858 -2.959,-19.083 -1.685,-5.747 -3.539,-10.859 -5.56,-15.334 -1.869,-4.132 -3.759,-8.406 -5.672,-12.821 -0.081,-0.187 -0.199,-0.348 -0.354,-0.482 -0.224,-0.194 -0.303,-0.105 -0.236,0.267 0.691,3.865 1.016,7.762 0.972,11.694 -0.005,0.25 -0.056,0.257 -0.154,0.021 -3.44,-8.249 -7.195,-16.351 -11.263,-24.304 -0.412,-0.807 -1.49,-2.853 -3.234,-6.137 -4.645,-8.753 -8.966,-17.666 -12.96,-26.739 -0.247,-0.56 -0.527,-1.103 -0.84,-1.631 -0.066,-0.115 -0.142,-0.187 -0.228,-0.215 -0.185,-0.062 -0.263,0.07 -0.233,0.396 0.176,1.906 0.286,3.815 0.33,5.727 0.162,7.118 0.469,14.23 0.922,21.335 0.068,1.073 0.087,2.331 0.06,3.774 -0.025,1.26 -0.016,2.521 0.031,3.781 0.009,0.213 0.002,0.377 -0.021,0.493 -0.073,0.409 -0.247,0.47 -0.52,0.184 -0.084,-0.086 -0.157,-0.211 -0.222,-0.375 -0.393,-1.006 -1.112,-2.389 -2.155,-4.149 -2.226,-3.765 -3.744,-7.795 -4.55,-12.09 -0.026,-0.136 -0.137,-0.24 -0.275,-0.256 -0.661,-0.074 -1.224,-0.039 -1.685,0.104 -0.104,0.031 -0.19,0.111 -0.233,0.218 -0.297,0.701 -0.483,1.276 -0.562,1.724 -0.653,3.673 -1.309,7.303 -1.971,10.89 -0.088,0.474 -0.203,0.481 -0.347,0.021 -1.281,-4.099 -2.841,-8.087 -4.679,-11.965 -4.549,-9.605 -7.732,-16.574 -9.547,-20.908 -1.956,-4.674 -3.755,-9.408 -5.395,-14.202 -1.53,-4.471 -2.76,-9.022 -3.687,-13.654 -0.035,-0.169 -0.082,-0.31 -0.142,-0.423 -0.25,-0.466 -0.389,-0.338 -0.417,0.381 -0.011,0.243 -0.02,0.413 -0.027,0.51 -0.296,3.407 -0.871,6.768 -1.725,10.084 -0.638,2.489 -1.85,4.651 -3.635,6.488 -0.08,0.083 -0.212,0.085 -0.295,0.005 -0.015,-0.015 -0.028,-0.032 -0.038,-0.05 -4.866,-9.094 -9.892,-18.107 -15.08,-27.038 -0.453,-0.782 -1.134,-2.262 -2.04,-4.441 -0.067,-0.161 -0.155,-0.269 -0.263,-0.322 -0.2,-0.095 -0.285,0.039 -0.257,0.402 0.018,0.257 0.028,0.404 0.028,0.441 0.037,2.033 0.009,4.012 -0.084,5.939 -0.02,0.46 -0.13,0.482 -0.329,0.066 -2.946,-6.178 -5.81,-12.391 -8.59,-18.64 -1.175,-2.638 -2.206,-5.331 -3.094,-8.079 -0.053,-0.159 -0.111,-0.296 -0.173,-0.409 -0.359,-0.636 -0.523,-0.542 -0.493,0.281 0.004,0.136 0.022,0.295 0.052,0.475 0.412,2.361 0.571,4.74 0.479,7.136 -0.035,0.893 0.154,2.221 0.565,3.986 0.03,0.132 0.037,0.252 0.022,0.36 -0.061,0.435 -0.207,0.461 -0.438,0.077 -0.074,-0.125 -0.139,-0.222 -0.194,-0.291 -5.298,-6.744 -10.56,-13.518 -15.784,-20.322 -6.497,-8.465 -12.098,-17.487 -16.804,-27.069 -0.132,-0.268 -0.253,-0.264 -0.364,0.014 -0.699,1.704 -1.477,3.38 -2.335,5.026 -0.1,0.19 -0.968,1.816 -2.606,4.878 -1.482,2.775 -3.085,5.481 -4.808,8.118 -2.002,3.064 -4.083,6.071 -6.244,9.023 -2.375,3.242 -3.568,4.872 -3.58,4.891 -2.503,3.457 -5.026,6.898 -7.573,10.32 -1.214,1.631 -2.296,3.322 -3.247,5.075 -0.196,0.363 -0.321,0.341 -0.374,-0.069 -0.246,-1.901 -0.475,-3.802 -0.688,-5.703 -0.113,-0.994 -0.176,-1.954 -0.19,-2.879 -0.023,-1.374 -0.013,-2.339 0.031,-2.894 0.039,-0.478 -0.099,-0.69 -0.417,-0.635 -0.097,0.018 -0.177,0.104 -0.201,0.219 -0.347,1.816 -0.907,3.563 -1.682,5.242 -2.34,5.085 -4.579,10.217 -6.716,15.395 -0.798,1.929 -1.697,3.81 -2.696,5.641 -0.055,0.104 -0.088,0.097 -0.096,-0.021 -0.105,-1.362 -0.129,-2.575 -0.074,-3.639 0.042,-0.814 -0.036,-1.561 -0.232,-2.241 -0.032,-0.111 -0.063,-0.11 -0.09,0.004 -0.405,1.609 -1.216,3.519 -2.431,5.727 -3.8,6.91 -7.503,13.873 -11.109,20.887 -0.888,1.73 -1.905,3.379 -3.053,4.947 -0.049,0.066 -0.142,0.08 -0.206,0.031 -0.007,-0.005 -0.013,-0.011 -0.019,-0.017 -0.849,-0.909 -1.56,-2.038 -2.133,-3.386 -1.479,-3.469 -2.518,-6.916 -3.119,-10.341 -0.019,-0.111 -0.091,-0.75 -0.219,-1.918 -0.066,-0.641 -0.191,-1.274 -0.374,-1.898 -0.155,-0.536 -0.326,-0.59 -0.514,-0.159 -0.044,0.104 -0.07,0.227 -0.08,0.371 -0.069,1.084 -0.188,1.939 -0.357,2.563 -1.85,6.843 -3.526,12.105 -5.03,15.784 -1.943,4.755 -4.602,10.479 -7.979,17.172 -1.9,3.77 -3.932,8.371 -6.092,13.803 -0.002,0.007 -0.421,1.116 -1.256,3.327 -1.095,2.912 -2.376,5.639 -3.839,8.18 -0.491,0.851 -0.779,0.788 -0.864,-0.191 -0.312,-3.642 -0.891,-7.222 -1.738,-10.74 -0.007,-0.023 -0.041,-0.202 -0.101,-0.537 -0.162,-0.872 -0.69,-1.123 -1.585,-0.753 -0.102,0.043 -0.19,0.12 -0.253,0.222 -0.412,0.668 -0.785,1.543 -1.118,2.626 -1.45,4.692 -3.411,9.051 -5.882,13.075 -0.512,0.832 -0.693,0.766 -0.542,-0.198 0.18,-1.17 0.275,-2.334 0.285,-3.49 0.025,-3.198 0.228,-7.13 0.61,-11.794 0.201,-2.452 0.334,-5.278 0.399,-8.479 0,-0.021 0.065,-1.651 0.194,-4.891 0.079,-1.992 0.036,-3.981 -0.128,-5.97 -0.007,-0.091 -0.029,-0.156 -0.066,-0.195 -0.083,-0.095 -0.168,-0.046 -0.256,0.146 -1.731,3.811 -3.433,7.637 -5.107,11.475 -1.501,3.439 -4.059,8.223 -7.674,14.352 -4.227,7.167 -7.932,14.595 -11.115,22.285 -1.512,3.656 -3.222,7.136 -5.127,10.438 -0.421,0.731 -0.545,0.684 -0.371,-0.142 0.193,-0.916 0.243,-1.837 0.152,-2.765 -0.279,-2.9 -0.134,-5.777 0.434,-8.631 0.037,-0.184 0.023,-0.326 -0.045,-0.423 -0.076,-0.114 -0.186,-0.165 -0.329,-0.156 -0.095,0.006 -0.188,0.079 -0.247,0.191 -2.225,4.327 -3.585,7.079 -4.083,8.256 -3.484,8.28 -6.151,16.251 -7.999,23.916 -1.224,5.071 -1.895,10.615 -2.013,16.63 -0.002,0.116 -0.038,0.128 -0.107,0.035 -1.652,-2.274 -2.823,-4.099 -3.518,-5.478 -1.68,-3.341 -3.242,-7.36 -4.682,-12.054 -0.953,-3.102 -1.561,-5.704 -1.822,-7.806 -0.111,-0.883 -0.256,-3.225 -0.433,-7.025 -0.058,-1.211 0.163,-3.541 0.662,-6.99 0.025,-0.171 0.025,-0.31 0,-0.416 -0.063,-0.271 -0.203,-0.321 -0.423,-0.149 -0.081,0.062 -0.143,0.164 -0.174,0.287 -0.767,3.014 -1.654,5.992 -2.66,8.934 -2.267,6.618 -3.867,13.386 -4.802,20.304 -0.342,2.523 -0.606,4.819 -0.794,6.889 -0.395,4.36 -0.499,9.107 -0.308,14.244 0.085,2.317 0.227,4.368 0.426,6.15 0.148,1.342 0.522,3.356 1.121,6.044 0.691,3.113 1.346,6.235 1.966,9.366 0.033,0.162 0.037,0.301 0.011,0.417 -0.079,0.376 -0.263,0.389 -0.552,0.038 -0.742,-0.907 -1.473,-1.823 -2.192,-2.748 -1.675,-2.153 -3.007,-4.503 -3.996,-7.049 -1.025,-2.641 -2.146,-5.229 -3.362,-7.764 -0.062,-0.132 -0.122,-0.13 -0.18,0.004 -0.384,0.876 -0.704,1.747 -0.961,2.612 -0.241,0.809 -0.405,1.718 -0.493,2.726 -0.286,3.252 -0.209,6.694 0.232,10.324 0.428,3.509 0.951,6.746 1.569,9.714 0.3,1.445 0.789,3.706 1.463,6.782 2.369,10.795 6.28,20.699 11.733,29.709 1.843,3.043 4.189,6.295 7.039,9.755 1.246,1.514 2.798,3.227 4.655,5.137 2.042,2.105 4.093,4.2 6.154,6.286 1.63,1.651 3.237,3.5 4.819,5.547 0.14,0.182 0.189,0.418 0.135,0.642 -0.759,3.12 -1.579,6.201 -2.463,9.245 -1.337,4.595 -2.588,9.213 -3.754,13.855 -0.509,2.031 -0.798,3.806 -0.867,5.325 -0.097,2.165 -0.01,4.329 0.26,6.494 0.276,2.204 0.843,4.33 1.704,6.38 0.578,1.376 1.17,2.745 1.779,4.107 0.263,0.59 0.577,1.123 0.94,1.599 0.075,0.101 0.082,0.237 0.018,0.344 -2.14,3.471 -3.725,7.084 -4.756,10.837 -1.786,6.505 -3.054,13.639 -3.803,21.4 -0.71,7.364 -0.652,14.273 0.174,20.728 0.534,4.163 1.586,8.439 3.156,12.829 0.967,2.703 1.831,4.848 2.592,6.435 1.609,3.367 3.717,6.423 6.32,9.168 1.892,1.996 4.027,3.359 6.405,4.09 1.984,0.611 4.115,0.657 6.393,0.139 2.699,-0.615 5.178,-1.72 7.438,-3.313 3.184,-2.246 6.27,-4.622 9.259,-7.129 9.088,-7.622 18.193,-15.226 27.315,-22.812 5.976,-4.97 11.515,-10.389 16.616,-16.256 0.287,-0.331 0.511,-0.653 0.673,-0.965 0.059,-0.111 0.189,-0.166 0.309,-0.128 3.328,1.024 6.662,1.723 10.002,2.095 2.39,0.266 4.274,0.392 5.65,0.379 1.996,-0.019 3.88,-0.305 5.651,-0.857 2.031,-0.634 3.991,-1.061 5.88,-1.281 1.444,-0.166 3.437,-0.258 5.981,-0.277 2.216,-0.016 4.426,0.105 6.633,0.364 4.484,0.525 8.963,1.081 13.439,1.669 2.655,0.347 5.316,0.519 7.985,0.517 1.869,-0.003 4.175,-0.161 6.918,-0.475 3.226,-0.37 6.445,-0.802 9.655,-1.295 3.967,-0.605 8.185,-0.889 12.651,-0.849 1.729,0.016 3.291,0.189 4.683,0.52 0.768,0.183 2.39,0.645 4.867,1.387 1.24,0.373 2.412,0.597 3.517,0.674 2.443,0.173 4.476,0.151 6.099,-0.066 3.656,-0.491 7.295,-1.317 10.914,-2.481 0.179,-0.055 0.372,-0.015 0.51,0.108 0.613,0.546 1.199,1.134 1.759,1.765 0.971,1.095 1.461,1.646 1.47,1.655 2.947,3.12 6.626,6.638 11.039,10.553 12.029,10.664 24.196,21.165 36.501,31.502 2.808,2.359 5.976,4.048 9.505,5.065 1.917,0.553 3.949,0.541 6.095,-0.034 2.102,-0.565 3.872,-1.429 5.309,-2.595 3.08,-2.496 5.603,-5.465 7.569,-8.909 1.926,-3.372 3.428,-6.909 4.506,-10.612 0.463,-1.595 1.017,-3.84 1.665,-6.733 0.906,-4.061 1.467,-7.801 1.678,-11.219 0.186,-2.953 0.08,-6.201 -0.318,-9.744 -0.185,-1.654 -0.475,-3.948 -0.871,-6.883 -1.242,-9.174 -3.613,-18.064 -7.115,-26.67 -0.282,-0.693 -0.792,-1.46 -1.53,-2.3 -0.071,-0.079 -0.085,-0.191 -0.038,-0.281 1.989,-3.797 3.43,-7.776 4.323,-11.937 0.512,-2.382 0.711,-4.675 0.592,-6.879 -0.131,-2.483 -0.524,-5.036 -1.179,-7.656 -1.297,-5.208 -2.607,-10.412 -3.927,-15.611 -0.514,-2.021 -0.952,-3.395 -1.318,-4.121 -0.352,-0.696 -0.33,-1.299 0.062,-1.807 1.487,-1.925 3.059,-3.775 4.715,-5.551 3.09,-3.316 4.666,-5.009 4.728,-5.078 3.745,-4.29 6.964,-8.398 9.662,-12.322 1.998,-2.91 3.99,-6.271 5.976,-10.085 1.083,-2.074 2.05,-4.174 2.901,-6.3 3.385,-8.452 5.821,-17.188 7.305,-26.205 0.389,-2.37 0.82,-5.418 1.291,-9.144 0.289,-2.281 0.398,-4.455 0.326,-6.525 m -91.614,-63.628 c -0.01,0.938 -0.077,1.873 -0.214,2.8 0.158,-0.926 0.23,-1.86 0.214,-2.8" /></g></g></g></g></svg>